<svg width="687" height="362" viewBox="0 0 687 362" fill="none" xmlns="http://www.w3.org/2000/svg">
<mask id="mask0_74_394" style="mask-type:luminance" maskUnits="userSpaceOnUse" x="0" y="46" width="687" height="316">
<path d="M663.414 361.517C690.644 343.015 690.571 306.426 679.46 277.802C668.35 249.178 648.829 222.641 645.12 192.574C640.645 156.284 659.389 116.78 639.956 84.5155C621.466 53.8164 575.837 44.244 536.469 47.434C497.101 50.6241 458.891 63.0985 419.358 62.8599C384.461 62.6499 350.633 52.5335 315.908 49.4995C281.184 46.4644 241.854 52.5106 220.82 76.973C205.182 95.1608 202.96 119.585 191.257 139.927C176.555 165.48 148.147 182.613 119.498 196.26C90.8477 209.909 60.3303 221.48 36.0991 240.626C11.8677 259.772 -5.37479 288.999 2.33572 316.817C124.123 340.59 250.912 341.272 375.542 346.248C473.425 350.156 565.842 353.648 663.414 361.517Z" fill="white"/>
</mask>
<g mask="url(#mask0_74_394)">
<path d="M214.46 44.244L-5.37476 50.5759V44.244H214.46Z" fill="#EEECFA"/>
<path d="M681.309 44.244L681.326 44.7144L-5.37476 64.4939V50.5759L214.46 44.244H681.309Z" fill="#EFEDFA"/>
<path d="M681.326 44.7145L681.845 58.6176L-5.37476 78.4108V64.4939L681.326 44.7145Z" fill="#F0EEFA"/>
<path d="M681.846 58.6176L682.364 72.5196L-5.37476 92.3288V78.4108L681.846 58.6176Z" fill="#F0EFFB"/>
<path d="M682.364 72.5195L682.883 86.4226L-5.37476 106.247V92.3288L682.364 72.5195Z" fill="#F1F0FB"/>
<path d="M682.883 86.4226L683.401 100.326L-5.37476 120.165V106.247L682.883 86.4226Z" fill="#F2F1FB"/>
<path d="M683.401 100.326L683.921 114.229L-5.37476 134.083V120.165L683.401 100.326Z" fill="#F3F2FB"/>
<path d="M683.921 114.229L684.44 128.132L-5.37476 148.001V134.083L683.921 114.229Z" fill="#F4F3FC"/>
<path d="M684.44 128.132L684.958 142.035L-5.37476 161.919V148.001L684.44 128.132Z" fill="#F5F4FC"/>
<path d="M684.958 142.035L685.477 155.938L-5.37476 175.837V161.919L684.958 142.035Z" fill="#F6F5FC"/>
<path d="M685.477 155.938L685.997 169.84L-5.37476 189.754V175.837L685.477 155.938Z" fill="#F7F6FD"/>
<path d="M685.997 169.84L686.515 183.743L-5.37476 203.672V189.754L685.997 169.84Z" fill="#F8F7FD"/>
<path d="M686.515 183.743L687.034 197.646L-5.37476 217.59V203.672L686.515 183.743Z" fill="#F9F8FD"/>
<path d="M687.034 197.646L687.552 211.549L-5.37476 231.508V217.59L687.034 197.646Z" fill="#FAF9FD"/>
<path d="M687.552 211.549L688.072 225.453L-5.37476 245.426V231.508L687.552 211.549Z" fill="#FAFAFE"/>
<path d="M688.072 225.453L688.591 239.356L-5.37476 259.344V245.426L688.072 225.453Z" fill="#FBFBFE"/>
<path d="M688.591 239.356L689.109 253.259L-5.37476 273.262V259.344L688.591 239.356Z" fill="#FCFCFE"/>
<path d="M689.109 253.259L689.628 267.162L-5.37476 287.18V273.262L689.109 253.259Z" fill="#FDFDFE"/>
<path d="M689.628 267.162L690.148 281.064L-5.37476 301.098V287.18L689.628 267.162Z" fill="#FEFEFF"/>
<path d="M690.146 281.064L690.644 294.375V294.968L-4.92712 315.002L-5.37476 303.006V301.098L690.146 281.064Z" fill="white"/>
<path d="M-3.19106 361.517L-4.927 315.002L690.644 294.968V361.517H-3.19106Z" fill="white"/>
</g>
<path d="M58.5858 313.173C39.5746 312.209 28.8887 311.124 28.8887 309.976C28.8887 306.07 152.629 302.888 307.337 302.75L308.358 305.98L58.5858 313.173Z" fill="#CDC7F3"/>
<path d="M317.718 317.207C204.05 317.207 105.72 315.562 58.5857 313.173L308.358 305.98L309.561 309.779L317.027 309.766L324.495 309.754L331.961 309.741L339.429 309.727L346.895 309.715L354.362 309.702L361.83 309.689L369.296 309.676L376.764 309.663L384.23 309.65L391.698 309.638L399.165 309.624L406.631 309.611L414.099 309.599L421.565 309.586L429.033 309.572L436.499 309.56L443.967 309.547L451.434 309.534L458.9 309.521L466.368 309.508L464.545 303.749C549.544 305.008 606.55 307.326 606.55 309.976C606.55 313.97 477.236 317.207 317.718 317.207Z" fill="#CDC7F3"/>
<mask id="mask1_74_394" style="mask-type:luminance" maskUnits="userSpaceOnUse" x="169" y="79" width="453" height="232">
<path d="M601.211 79.7189L217.347 84.4294C208.599 84.5373 201.571 90.0453 200.532 97.6039L169.266 310.022L567.707 309.334C579.306 309.38 589.342 302.247 591.71 292.27L621.022 99.2104C622.638 89.0665 612.99 79.5743 601.211 79.7189Z" fill="white"/>
</mask>
<g mask="url(#mask1_74_394)">
<path d="M169.266 291.406L175.157 310.022H169.266V291.406Z" fill="#7E71DA"/>
<path d="M169.266 267.8L182.628 310.022H175.157L169.266 291.406V267.8Z" fill="#7E72DA"/>
<path d="M169.266 244.192L190.1 310.022H182.628L169.266 267.8V244.192Z" fill="#7F73DB"/>
<path d="M169.266 220.586L197.571 310.022H190.1L169.266 244.192V220.586Z" fill="#7F74DB"/>
<path d="M169.266 196.98L205.041 310.022H197.571L169.266 220.586V196.98Z" fill="#8075DC"/>
<path d="M169.266 173.373L212.513 310.022H205.041L169.266 196.98V173.373Z" fill="#8076DC"/>
<path d="M169.266 149.766L219.984 310.022H212.513L169.266 173.373V149.766Z" fill="#8177DD"/>
<path d="M169.266 126.159L227.454 310.022H219.984L169.266 149.766V126.159Z" fill="#8178DD"/>
<path d="M169.266 102.553L234.926 310.022H227.454L169.266 126.159V102.553Z" fill="#8279DE"/>
<path d="M169.266 93.6679L173.59 92.6122L242.397 310.022H234.926L169.266 102.553V93.6679Z" fill="#827ADE"/>
<path d="M173.59 92.6123L180.525 90.9174L249.869 310.022H242.397L173.59 92.6123Z" fill="#837BDF"/>
<path d="M180.525 90.9174L187.461 89.2237L257.339 310.022H249.869L180.525 90.9174Z" fill="#847CDF"/>
<path d="M187.461 89.2237L194.396 87.53L264.81 310.022H257.339L187.461 89.2237Z" fill="#847DE0"/>
<path d="M194.396 87.53L201.33 85.8363L272.282 310.022H264.811L194.396 87.53Z" fill="#857EE0"/>
<path d="M201.33 85.8363L208.266 84.1425L279.752 310.022H272.282L201.33 85.8363Z" fill="#857FE1"/>
<path d="M208.266 84.1425L215.201 82.4488L287.223 310.022H279.752L208.266 84.1425Z" fill="#8680E1"/>
<path d="M215.201 82.4488L222.136 80.7551L294.695 310.022H287.224L215.201 82.4488Z" fill="#8681E2"/>
<path d="M222.135 80.7551L226.97 79.5743H229.233L302.167 310.022H294.695L222.135 80.7551Z" fill="#8782E2"/>
<path d="M236.705 79.5743L309.637 310.022H302.167L229.233 79.5743H236.705Z" fill="#8783E3"/>
<path d="M244.175 79.5743L317.108 310.022H309.637L236.705 79.5743H244.175Z" fill="#8884E3"/>
<path d="M251.647 79.5743L324.58 310.022H317.108L244.175 79.5743H251.647Z" fill="#8885E4"/>
<path d="M259.118 79.5743L332.05 310.022H324.58L251.646 79.5743H259.118Z" fill="#8986E4"/>
<path d="M266.588 79.5743L339.521 310.022H332.05L259.118 79.5743H266.588Z" fill="#8987E5"/>
<path d="M274.06 79.5743L346.993 310.022H339.521L266.588 79.5743H274.06Z" fill="#8A88E5"/>
<path d="M281.531 79.5743L354.463 310.022H346.993L274.06 79.5743H281.531Z" fill="#8B89E6"/>
<path d="M289.003 79.5743L361.935 310.022H354.463L281.531 79.5743H289.003Z" fill="#8B8AE6"/>
<path d="M296.473 79.5743L369.406 310.022H361.934L289.002 79.5743H296.473Z" fill="#8C8BE7"/>
<path d="M303.944 79.5743L376.877 310.022H369.406L296.473 79.5743H303.944Z" fill="#8C8CE7"/>
<path d="M311.416 79.5743L384.348 310.022H376.877L303.944 79.5743H311.416Z" fill="#8D8DE8"/>
<path d="M318.886 79.5743L391.819 310.022H384.348L311.416 79.5743H318.886Z" fill="#8D8EE8"/>
<path d="M326.357 79.5743L399.291 310.022H391.819L318.886 79.5743H326.357Z" fill="#8E8FE9"/>
<path d="M333.829 79.5743L406.761 310.022H399.291L326.357 79.5743H333.829Z" fill="#8E90E9"/>
<path d="M341.3 79.5743L414.232 310.022H406.761L333.829 79.5743H341.3Z" fill="#8F91EA"/>
<path d="M348.77 79.5743L421.704 310.022H414.232L341.3 79.5743H348.77Z" fill="#8F92EA"/>
<path d="M356.242 79.5743L429.175 310.022H421.704L348.771 79.5743H356.242Z" fill="#9093EB"/>
<path d="M363.713 79.5743L436.645 310.022H429.175L356.242 79.5743H363.713Z" fill="#9094EB"/>
<path d="M371.184 79.5743L444.117 310.022H436.645L363.713 79.5743H371.184Z" fill="#9196EC"/>
<path d="M378.655 79.5743L451.588 310.022H444.117L371.184 79.5743H378.655Z" fill="#9297EC"/>
<path d="M386.127 79.5743L459.06 310.022H451.588L378.655 79.5743H386.127Z" fill="#9298ED"/>
<path d="M393.598 79.5743L466.53 310.022H459.06L386.126 79.5743H393.598Z" fill="#9399ED"/>
<path d="M401.068 79.5743L474.001 310.022H466.53L393.598 79.5743H401.068Z" fill="#939AEE"/>
<path d="M408.54 79.5743L481.473 310.022H474.001L401.068 79.5743H408.54Z" fill="#949BEE"/>
<path d="M416.011 79.5743L488.943 310.022H481.473L408.54 79.5743H416.011Z" fill="#949CEF"/>
<path d="M423.481 79.5743L496.415 310.022H488.943L416.011 79.5743H423.481Z" fill="#959DEF"/>
<path d="M430.953 79.5743L503.886 310.022H496.415L423.481 79.5743H430.953Z" fill="#959EF0"/>
<path d="M438.424 79.5743L511.356 310.022H503.886L430.953 79.5743H438.424Z" fill="#969FF0"/>
<path d="M445.896 79.5743L518.828 310.022H511.356L438.424 79.5743H445.896Z" fill="#96A0F1"/>
<path d="M453.366 79.5743L526.299 310.022H518.828L445.896 79.5743H453.366Z" fill="#97A1F1"/>
<path d="M460.837 79.5743L533.771 310.022H526.299L453.366 79.5743H460.837Z" fill="#97A2F2"/>
<path d="M468.309 79.5743L541.241 310.022H533.771L460.837 79.5743H468.309Z" fill="#98A3F2"/>
<path d="M475.779 79.5743L548.712 310.022H541.241L468.309 79.5743H475.779Z" fill="#99A4F3"/>
<path d="M483.251 79.5743L556.184 310.022H548.712L475.779 79.5743H483.251Z" fill="#99A5F3"/>
<path d="M490.722 79.5743L563.654 310.022H556.184L483.25 79.5743H490.722Z" fill="#9AA6F4"/>
<path d="M498.194 79.5743L571.125 310.022H563.654L490.722 79.5743H498.194Z" fill="#9AA7F4"/>
<path d="M505.664 79.5743L578.597 310.022H571.125L498.194 79.5743H505.664Z" fill="#9BA8F5"/>
<path d="M513.135 79.5743L585.534 308.335L578.628 310.022H578.597L505.664 79.5743H513.135Z" fill="#9BA9F5"/>
<path d="M520.607 79.5743L592.469 306.642L585.534 308.335L513.135 79.5743H520.607Z" fill="#9CAAF6"/>
<path d="M528.077 79.5744L599.405 304.948L592.469 306.642L520.607 79.5744H528.077Z" fill="#9CABF6"/>
<path d="M535.548 79.5744L606.339 303.254L599.405 304.948L528.077 79.5744H535.548Z" fill="#9DACF7"/>
<path d="M543.02 79.5743L613.274 301.559L606.339 303.254L535.548 79.5743H543.02Z" fill="#9DADF7"/>
<path d="M550.491 79.5743L620.209 299.866L613.274 301.559L543.02 79.5743H550.491Z" fill="#9EAEF8"/>
<path d="M557.961 79.5743L622.639 283.936V299.272L620.208 299.866L550.491 79.5743H557.961Z" fill="#9EAFF8"/>
<path d="M565.433 79.5743L622.639 260.33V283.936L557.961 79.5743H565.433Z" fill="#9FB0F9"/>
<path d="M572.904 79.5744L622.639 236.723V260.33L565.433 79.5744H572.904Z" fill="#A0B1F9"/>
<path d="M580.374 79.5744L622.639 213.116V236.723L572.904 79.5744H580.374Z" fill="#A0B2FA"/>
<path d="M587.846 79.5743L622.639 189.509V213.116L580.375 79.5743H587.846Z" fill="#A1B3FA"/>
<path d="M595.317 79.5743L622.639 165.903V189.509L587.846 79.5743H595.317Z" fill="#A1B4FB"/>
<path d="M602.789 79.5743L622.639 142.296V165.903L595.318 79.5743H602.789Z" fill="#A2B5FB"/>
<path d="M610.259 79.5743L622.639 118.689V142.296L602.789 79.5743H610.259Z" fill="#A2B6FC"/>
<path d="M617.731 79.5743L622.639 95.0828V118.689L610.259 79.5743H617.731Z" fill="#A3B7FC"/>
<path d="M622.639 95.0828L617.731 79.5744H622.639V95.0828Z" fill="#A3B8FD"/>
</g>
<mask id="mask2_74_394" style="mask-type:luminance" maskUnits="userSpaceOnUse" x="41" y="289" width="386" height="22">
<path d="M414.295 293.48L414.303 289.933L41.2825 289.256L42.0094 294.842C43.1384 303.517 51.5129 310.059 61.4521 310.029L426.441 309.599C419.291 306.947 414.279 300.725 414.295 293.48Z" fill="white"/>
</mask>
<g mask="url(#mask2_74_394)">
<path d="M422.104 310.059L422.41 289.567L426.441 289.614V310.059H422.104Z" fill="#7D70D9"/>
<path d="M416.913 310.059L417.218 289.507L422.41 289.567L422.105 310.059H416.913Z" fill="#7E71DA"/>
<path d="M411.72 310.059L412.027 289.448L417.218 289.507L416.912 310.059H411.72Z" fill="#7E72DA"/>
<path d="M406.528 310.059L406.837 289.388L412.027 289.448L411.72 310.059H406.528Z" fill="#7F73DB"/>
<path d="M401.336 310.059L401.646 289.328L406.836 289.388L406.528 310.059H401.336Z" fill="#7F74DB"/>
<path d="M396.145 310.059L396.455 289.268L401.646 289.328L401.336 310.059H396.145Z" fill="#8075DC"/>
<path d="M390.953 310.059L391.263 289.256H395.35L396.455 289.268L396.145 310.059H390.953Z" fill="#8076DC"/>
<path d="M385.761 310.059L386.071 289.256H391.263L390.953 310.059H385.761Z" fill="#8177DD"/>
<path d="M380.569 310.059L380.878 289.256H386.071L385.761 310.059H380.569Z" fill="#8178DD"/>
<path d="M375.377 310.059L375.688 289.256H380.878L380.569 310.059H375.377Z" fill="#8279DE"/>
<path d="M370.185 310.059L370.495 289.256H375.688L375.377 310.059H370.185Z" fill="#827ADE"/>
<path d="M364.994 310.059L365.303 289.256H370.495L370.184 310.059H364.994Z" fill="#837BDF"/>
<path d="M359.802 310.059L360.111 289.256H365.303L364.994 310.059H359.802Z" fill="#847CDF"/>
<path d="M354.609 310.059L354.919 289.256H360.111L359.802 310.059H354.609Z" fill="#847DE0"/>
<path d="M349.417 310.059L349.727 289.256H354.919L354.609 310.059H349.417Z" fill="#857EE0"/>
<path d="M344.225 310.059L344.536 289.256H349.727L349.417 310.059H344.225Z" fill="#857FE1"/>
<path d="M339.033 310.059L339.344 289.256H344.536L344.225 310.059H339.033Z" fill="#8680E1"/>
<path d="M333.842 310.059L334.152 289.256H339.344L339.033 310.059H333.842Z" fill="#8681E2"/>
<path d="M328.65 310.059L328.959 289.256H334.152L333.842 310.059H328.65Z" fill="#8782E2"/>
<path d="M323.458 310.059L323.767 289.256H328.959L328.65 310.059H323.458Z" fill="#8783E3"/>
<path d="M318.265 310.059L318.575 289.256H323.767L323.458 310.059H318.265Z" fill="#8884E3"/>
<path d="M313.073 310.059L313.384 289.256H318.575L318.265 310.059H313.073Z" fill="#8885E4"/>
<path d="M307.881 310.059L308.192 289.256H313.384L313.073 310.059H307.881Z" fill="#8986E4"/>
<path d="M302.69 310.059L303 289.256H308.192L307.881 310.059H302.69Z" fill="#8987E5"/>
<path d="M297.498 310.059L297.808 289.256H303L302.69 310.059H297.498Z" fill="#8A88E5"/>
<path d="M292.306 310.059L292.616 289.256H297.808L297.498 310.059H292.306Z" fill="#8B89E6"/>
<path d="M287.114 310.059L287.424 289.256H292.616L292.306 310.059H287.114Z" fill="#8B8AE6"/>
<path d="M281.922 310.059L282.233 289.256H287.424L287.114 310.059H281.922Z" fill="#8C8BE7"/>
<path d="M276.73 310.059L277.041 289.256H282.233L281.922 310.059H276.73Z" fill="#8C8CE7"/>
<path d="M271.538 310.059L271.848 289.256H277.041L276.73 310.059H271.538Z" fill="#8D8DE8"/>
<path d="M266.347 310.059L266.656 289.256H271.848L271.538 310.059H266.347Z" fill="#8D8EE8"/>
<path d="M261.155 310.059L261.464 289.256H266.656L266.347 310.059H261.155Z" fill="#8E8FE9"/>
<path d="M255.962 310.059L256.272 289.256H261.464L261.155 310.059H255.962Z" fill="#8E90E9"/>
<path d="M250.77 310.059L251.08 289.256H256.272L255.962 310.059H250.77Z" fill="#8F91EA"/>
<path d="M245.578 310.059L245.889 289.256H251.08L250.77 310.059H245.578Z" fill="#8F92EA"/>
<path d="M240.386 310.059L240.697 289.256H245.889L245.578 310.059H240.386Z" fill="#9093EB"/>
<path d="M235.195 310.059L235.505 289.256H240.697L240.386 310.059H235.195Z" fill="#9094EB"/>
<path d="M230.003 310.059L230.312 289.256H235.504L235.195 310.059H230.003Z" fill="#9196EC"/>
<path d="M224.811 310.059L225.12 289.256H230.312L230.003 310.059H224.811Z" fill="#9297EC"/>
<path d="M219.618 310.059L219.928 289.256H225.12L224.811 310.059H219.618Z" fill="#9298ED"/>
<path d="M214.426 310.059L214.737 289.256H219.928L219.618 310.059H214.426Z" fill="#9399ED"/>
<path d="M209.234 310.059L209.545 289.256H214.737L214.426 310.059H209.234Z" fill="#939AEE"/>
<path d="M204.043 310.059L204.353 289.256H209.545L209.234 310.059H204.043Z" fill="#949BEE"/>
<path d="M198.851 310.059L199.161 289.256H204.353L204.043 310.059H198.851Z" fill="#949CEF"/>
<path d="M193.659 310.059L193.969 289.256H199.161L198.851 310.059H193.659Z" fill="#959DEF"/>
<path d="M188.467 310.059L188.776 289.256H193.969L193.659 310.059H188.467Z" fill="#959EF0"/>
<path d="M183.275 310.059L183.586 289.256H188.776L188.467 310.059H183.275Z" fill="#969FF0"/>
<path d="M178.083 310.059L178.393 289.256H183.586L183.275 310.059H178.083Z" fill="#96A0F1"/>
<path d="M172.892 310.059L173.201 289.256H178.394L178.083 310.059H172.892Z" fill="#97A1F1"/>
<path d="M167.7 310.059L168.009 289.256H173.201L172.892 310.059H167.7Z" fill="#97A2F2"/>
<path d="M162.507 310.059L162.817 289.256H168.009L167.699 310.059H162.507Z" fill="#98A3F2"/>
<path d="M157.315 310.059L157.625 289.256H162.817L162.507 310.059H157.315Z" fill="#99A4F3"/>
<path d="M152.123 310.059L152.434 289.256H157.625L157.315 310.059H152.123Z" fill="#99A5F3"/>
<path d="M146.931 310.059L147.242 289.256H152.434L152.123 310.059H146.931Z" fill="#9AA6F4"/>
<path d="M141.74 310.059L142.05 289.256H147.242L146.931 310.059H141.74Z" fill="#9AA7F4"/>
<path d="M136.548 310.059L136.857 289.256H142.05L141.74 310.059H136.548Z" fill="#9BA8F5"/>
<path d="M131.356 310.059L131.665 289.256H136.857L136.548 310.059H131.356Z" fill="#9BA9F5"/>
<path d="M126.164 310.059L126.473 289.256H131.665L131.356 310.059H126.164Z" fill="#9CAAF6"/>
<path d="M120.971 310.059L121.282 289.256H126.473L126.164 310.059H120.971Z" fill="#9CABF6"/>
<path d="M115.779 310.059L116.09 289.256H121.282L120.971 310.059H115.779Z" fill="#9DACF7"/>
<path d="M110.587 310.059L110.898 289.256H116.09L115.779 310.059H110.587Z" fill="#9DADF7"/>
<path d="M105.396 310.059L105.706 289.256H110.898L110.587 310.059H105.396Z" fill="#9EAEF8"/>
<path d="M100.204 310.059L100.514 289.256H105.706L105.396 310.059H100.204Z" fill="#9EAFF8"/>
<path d="M95.012 310.059L95.3215 289.256H100.514L100.204 310.059H95.012Z" fill="#9FB0F9"/>
<path d="M89.8198 310.059L90.1294 289.256H95.3215L95.012 310.059H89.8198Z" fill="#A0B1F9"/>
<path d="M84.6277 310.059L84.9386 289.256H90.1294L89.8198 310.059H84.6277Z" fill="#A0B2FA"/>
<path d="M79.4355 310.059L79.7464 289.256H84.9386L84.6277 310.059H79.4355Z" fill="#A1B3FA"/>
<path d="M74.2446 310.059L74.5542 289.256H79.7464L79.4355 310.059H74.2446Z" fill="#A1B4FB"/>
<path d="M69.0525 310.059L69.3621 289.256H74.5542L74.2446 310.059H69.0525Z" fill="#A2B5FB"/>
<path d="M63.8604 310.059L64.1699 289.256H69.3621L69.0525 310.059H63.8604Z" fill="#A2B6FC"/>
<path d="M58.6682 310.059L58.9782 289.256H64.1698L63.8602 310.059H58.6682Z" fill="#A3B7FC"/>
<path d="M53.4763 310.059L53.7864 289.256H58.9783L58.6683 310.059H53.4763Z" fill="#A3B8FD"/>
<path d="M48.2844 310.059L48.5945 289.256H53.7864L53.4763 310.059H48.2844Z" fill="#A4B9FD"/>
<path d="M43.0925 310.059L43.4025 289.256H48.5945L48.2844 310.059H43.0925Z" fill="#A4BAFE"/>
<path d="M43.4027 289.256L43.0927 310.059H41.2827V289.256H43.4027Z" fill="#A5BBFE"/>
</g>
<mask id="mask3_74_394" style="mask-type:luminance" maskUnits="userSpaceOnUse" x="410" y="289" width="182" height="21">
<path d="M591.103 290.258L410.506 289.926L410.498 293.474C410.481 300.719 415.494 306.94 422.643 309.593L571.044 309.274C582.751 309.26 591.978 300.513 591.103 290.258Z" fill="white"/>
</mask>
<g mask="url(#mask3_74_394)">
<path d="M590.801 309.593L591.459 289.926H591.978V309.593H590.801Z" fill="#8177DD"/>
<path d="M586.944 309.593L587.602 289.926H591.459L590.801 309.593H586.944Z" fill="#8178DD"/>
<path d="M583.085 309.593L583.743 289.926H587.602L586.944 309.593H583.085Z" fill="#8279DE"/>
<path d="M579.227 309.593L579.885 289.926H583.743L583.085 309.593H579.227Z" fill="#827ADE"/>
<path d="M575.369 309.593L576.028 289.926H579.885L579.227 309.593H575.369Z" fill="#837BDF"/>
<path d="M571.511 309.593L572.169 289.926H576.028L575.369 309.593H571.511Z" fill="#847CDF"/>
<path d="M567.652 309.593L568.312 289.926H572.169L571.511 309.593H567.652Z" fill="#847DE0"/>
<path d="M563.795 309.593L564.454 289.926H568.312L567.652 309.593H563.795Z" fill="#857EE0"/>
<path d="M559.937 309.593L560.595 289.926H564.453L563.795 309.593H559.937Z" fill="#857FE1"/>
<path d="M556.078 309.593L556.738 289.926H560.595L559.937 309.593H556.078Z" fill="#8680E1"/>
<path d="M552.221 309.593L552.879 289.926H556.738L556.078 309.593H552.221Z" fill="#8681E2"/>
<path d="M548.362 309.593L549.021 289.926H552.879L552.221 309.593H548.362Z" fill="#8782E2"/>
<path d="M544.505 309.593L545.163 289.926H549.021L548.362 309.593H544.505Z" fill="#8783E3"/>
<path d="M540.646 309.593L541.305 289.926H545.163L544.505 309.593H540.646Z" fill="#8884E3"/>
<path d="M536.788 309.593L537.446 289.926H541.305L540.647 309.593H536.788Z" fill="#8885E4"/>
<path d="M532.931 309.593L533.589 289.926H537.446L536.788 309.593H532.931Z" fill="#8986E4"/>
<path d="M529.072 309.593L529.731 289.926H533.589L532.931 309.593H529.072Z" fill="#8987E5"/>
<path d="M525.214 309.593L525.872 289.926H529.73L529.072 309.593H525.214Z" fill="#8A88E5"/>
<path d="M521.356 309.593L522.015 289.926H525.872L525.214 309.593H521.356Z" fill="#8B89E6"/>
<path d="M517.498 309.593L518.156 289.926H522.015L521.357 309.593H517.498Z" fill="#8B8AE6"/>
<path d="M513.639 309.593L514.299 289.926H518.156L517.498 309.593H513.639Z" fill="#8C8BE7"/>
<path d="M509.782 309.593L510.441 289.926H514.299L513.639 309.593H509.782Z" fill="#8C8CE7"/>
<path d="M505.924 309.593L506.582 289.926H510.44L509.782 309.593H505.924Z" fill="#8D8DE8"/>
<path d="M502.066 309.593L502.725 289.926H506.582L505.924 309.593H502.066Z" fill="#8D8EE8"/>
<path d="M498.208 309.593L498.866 289.926H502.725L502.067 309.593H498.208Z" fill="#8E8FE9"/>
<path d="M494.349 309.593L495.008 289.926H498.866L498.208 309.593H494.349Z" fill="#8E90E9"/>
<path d="M490.492 309.593L491.15 289.926H495.008L494.349 309.593H490.492Z" fill="#8F91EA"/>
<path d="M486.634 309.593L487.292 289.926H491.151L490.492 309.593H486.634Z" fill="#8F92EA"/>
<path d="M482.775 309.593L483.434 289.926H487.292L486.634 309.593H482.775Z" fill="#9093EB"/>
<path d="M478.918 309.593L479.576 289.926H483.434L482.775 309.593H478.918Z" fill="#9094EB"/>
<path d="M475.06 309.593L475.718 289.926H479.576L478.918 309.593H475.06Z" fill="#9196EC"/>
<path d="M471.201 309.593L471.861 289.926H475.718L475.059 309.593H471.201Z" fill="#9297EC"/>
<path d="M467.344 309.593L468.002 289.926H471.861L471.201 309.593H467.344Z" fill="#9298ED"/>
<path d="M463.485 309.593L464.143 289.926H468.002L467.344 309.593H463.485Z" fill="#9399ED"/>
<path d="M459.627 309.593L460.286 289.926H464.144L463.485 309.593H459.627Z" fill="#939AEE"/>
<path d="M455.77 309.593L456.428 289.926H460.286L459.627 309.593H455.77Z" fill="#949BEE"/>
<path d="M451.911 309.593L452.569 289.926H456.428L455.769 309.593H451.911Z" fill="#949CEF"/>
<path d="M448.054 309.593L448.712 289.926H452.569L451.911 309.593H448.054Z" fill="#959DEF"/>
<path d="M444.195 309.593L444.854 289.926H448.712L448.054 309.593H444.195Z" fill="#959EF0"/>
<path d="M440.337 309.593L440.995 289.926H444.854L444.195 309.593H440.337Z" fill="#969FF0"/>
<path d="M436.479 309.593L437.138 289.926H440.995L440.337 309.593H436.479Z" fill="#96A0F1"/>
<path d="M432.621 309.593L433.279 289.926H437.138L436.479 309.593H432.621Z" fill="#97A1F1"/>
<path d="M428.762 309.593L429.422 289.926H433.279L432.621 309.593H428.762Z" fill="#97A2F2"/>
<path d="M424.905 309.593L425.564 289.926H429.422L428.762 309.593H424.905Z" fill="#98A3F2"/>
<path d="M421.047 309.593L421.705 289.926H425.563L424.905 309.593H421.047Z" fill="#99A4F3"/>
<path d="M417.189 309.593L417.848 289.926H421.705L421.047 309.593H417.189Z" fill="#99A5F3"/>
<path d="M413.331 309.593L413.989 289.926H417.848L417.19 309.593H413.331Z" fill="#9AA6F4"/>
<path d="M413.989 289.926L413.331 309.593H410.482V289.926H413.989Z" fill="#9AA7F4"/>
</g>
<path d="M580.224 278.543L188.074 277.86L213.586 96.679L607.919 92.3943L580.224 278.543Z" fill="white"/>
<path d="M543.305 301.299L566.849 301.339L566.858 297.003L543.315 296.961L543.305 301.299ZM567.228 302.007H567.226L542.924 301.964C542.714 301.964 542.544 301.815 542.546 301.631L542.556 296.626C542.556 296.538 542.597 296.453 542.668 296.391C542.739 296.329 542.836 296.293 542.936 296.293L567.239 296.336C567.448 296.336 567.618 296.486 567.618 296.67L567.606 301.674C567.606 301.762 567.566 301.847 567.495 301.909C567.424 301.972 567.328 302.007 567.228 302.007Z" fill="white"/>
<path d="M505.332 301.232L528.876 301.274L528.885 296.936L505.342 296.896L505.332 301.232ZM529.255 301.94H529.254L504.952 301.899C504.851 301.899 504.755 301.863 504.683 301.8C504.612 301.738 504.572 301.653 504.573 301.564L504.583 296.561C504.585 296.376 504.755 296.228 504.964 296.228H504.965L529.267 296.271C529.476 296.271 529.646 296.42 529.646 296.604L529.634 301.608C529.634 301.697 529.595 301.781 529.523 301.844C529.451 301.906 529.356 301.94 529.255 301.94Z" fill="white"/>
<mask id="mask4_74_394" style="mask-type:luminance" maskUnits="userSpaceOnUse" x="234" y="6" width="360" height="273">
<path d="M361.596 6.66223L470.016 23.8059L550.899 110.636L593.224 205.658L501.521 278.646L453.698 278.407H366.818L234.244 206.347V135.424L235.533 101.964L309.613 85.7743L361.596 6.66223Z" fill="white"/>
</mask>
<g mask="url(#mask4_74_394)">
<path d="M401.835 443.244C406.741 444.105 411.854 444.272 416.846 444.162C425.533 443.969 434.137 442.859 442.779 442.161C443.121 442.134 443.464 442.116 443.806 442.093L440.301 307.906L449.737 309.75L461.454 442.015C466.266 442.102 471.079 442.112 475.902 441.639C481.545 441.086 487.138 440.211 492.736 439.393C495.934 438.924 499.142 438.547 502.35 438.168L495.202 258.137L397.306 256.781C397.306 256.781 393.64 290.407 397.306 367.786C398.465 392.222 400.117 418.594 401.835 443.244Z" fill="#6476EA"/>
<path d="M495.316 432.996C495.098 432.996 494.916 432.845 494.907 432.651L487.335 273.447C487.326 273.248 487.502 273.081 487.727 273.073C487.961 273.066 488.144 273.218 488.154 273.417L495.726 432.621C495.735 432.82 495.559 432.987 495.334 432.995L495.316 432.996Z" fill="white"/>
<path d="M303.326 177.701L295.116 168.875C294.119 167.583 289.537 166.968 287.891 166.898L266.232 165.141L246.218 158.479C246.633 156.077 248.962 154.452 251.27 154.954L267.389 158.457L300.086 152.877C301.95 152.559 303.833 152.931 305.39 153.924C309.702 156.678 311.315 158.534 314.633 163.192L316.925 166.799L303.326 177.701Z" fill="#FCC5B6"/>
<path d="M277.926 158.726L264.348 153.493L259.663 148.297C258.278 146.762 256.033 146.359 254.111 147.301L253.686 147.51L260.407 156.955L271.903 161.34L277.926 158.726Z" fill="#FCC5B6"/>
<path d="M304.96 153.788L294.651 148.992L279.888 144.172C278.902 146.271 279.684 148.711 281.662 149.71L285.809 151.8L286.637 159.888L308.738 157.711L304.96 153.788Z" fill="#FCC5B6"/>
<path d="M267.321 165.286L247.494 167.196C246.935 165.312 248.163 163.282 250.103 162.884L264.921 159.837L270.876 164.051L267.321 165.286Z" fill="#FCC5B6"/>
<path d="M273.784 158.432C273.551 158.432 273.341 158.293 273.285 158.086C273.22 157.844 273.389 157.602 273.665 157.545L286.789 154.791C289.517 154.218 292.339 154.342 294.948 155.15L299.738 156.632C300.005 156.715 300.144 156.972 300.05 157.206C299.956 157.44 299.664 157.563 299.397 157.481L294.609 155.999C292.186 155.249 289.563 155.134 287.026 155.666L273.903 158.419C273.862 158.428 273.823 158.432 273.784 158.432Z" fill="#1A1A1A"/>
<path d="M378.946 146.166L352.76 196.235L333.884 177.283C329.238 172.618 323.882 168.54 317.968 165.163L314.559 163.217C311.383 167.925 306.358 171.454 300.431 173.138L299.156 173.501L300.992 178.343C303.046 183.754 305.872 188.913 309.406 193.698L337.39 231.597C340.487 235.792 345.441 238.652 351.051 239.484L351.353 239.529C360.255 240.85 369.134 237.328 373.867 230.622C385.346 214.36 405.44 185.95 405.44 185.95L401.435 149.143L378.946 146.166Z" fill="#A6BDFF"/>
<path d="M306.847 188.43C306.634 188.43 306.438 188.308 306.372 188.121C306.293 187.892 306.44 187.648 306.702 187.578C315.033 185.348 322.133 180.184 326.186 173.411C326.313 173.199 326.612 173.117 326.854 173.229C327.097 173.341 327.189 173.604 327.061 173.816C322.888 180.793 315.572 186.112 306.99 188.41C306.942 188.423 306.894 188.43 306.847 188.43Z" fill="#382A73"/>
<path d="M362.111 205.236C361.963 205.236 361.818 205.179 361.72 205.068C358.845 201.831 355.608 198.818 352.1 196.111C351.894 195.953 351.874 195.677 352.054 195.497C352.235 195.317 352.547 195.299 352.753 195.457C356.309 198.201 359.588 201.254 362.5 204.534C362.669 204.723 362.631 204.996 362.415 205.144C362.325 205.206 362.217 205.236 362.111 205.236Z" fill="#382A73"/>
<path d="M392.014 245.971C391.973 242.262 392.353 238.525 392.439 235.272C392.604 229.082 392.769 222.894 392.932 216.705C392.932 207.55 393.418 198.373 393.661 189.219C393.897 180.302 395.431 170.642 393.71 161.84C392.369 154.975 385.867 150.189 378.382 148.012C379.756 144.576 381.642 141.339 384.229 138.497C391.04 131.013 402.09 127.799 412.504 124.951C424.586 121.649 436.925 118.316 449.579 118.51C452.922 118.558 456.259 118.866 459.547 119.412C461.972 119.813 464.368 120.337 466.713 120.997C474.04 124.096 482.003 126.078 489.721 128.42C499.73 131.457 509.862 135.42 516.617 142.584C522.937 149.288 525.583 158.019 528.053 166.454C534.454 188.282 539.859 201.256 540.085 223.798C540.155 230.917 539.328 238.644 533.88 243.914C529.386 248.267 522.42 250.126 515.729 250.156C509.039 250.187 503.561 250.517 496.545 249.637C497.297 252.718 497.308 262.875 494.543 264.808C491.781 266.736 488.142 267.344 484.649 267.802C461.07 270.897 436.935 270.025 413.456 266.398C407.527 265.482 401.254 264.214 397.074 260.41C393.021 256.721 392.071 251.378 392.014 245.971Z" fill="#A6BDFF"/>
<path d="M493.452 149.278C493.4 149.278 493.348 149.271 493.297 149.256C493.037 149.181 492.896 148.935 492.982 148.707C494.928 143.532 498.399 138.873 503.02 135.235C503.224 135.074 503.536 135.089 503.719 135.268C503.902 135.447 503.883 135.722 503.681 135.882C499.189 139.419 495.814 143.948 493.921 148.98C493.853 149.162 493.66 149.278 493.452 149.278Z" fill="#382A73"/>
<path d="M498.81 207.144C498.576 207.144 498.367 206.997 498.324 206.789L492.296 177.733C492.248 177.497 492.425 177.27 492.694 177.228C492.965 177.184 493.221 177.341 493.269 177.577L499.297 206.632C499.347 206.868 499.168 207.095 498.899 207.137C498.869 207.143 498.84 207.144 498.81 207.144Z" fill="#382A73"/>
<path d="M457.177 90.8245L461.216 123.913C461.199 126.431 460.498 128.905 459.173 131.133C454.86 138.378 444.697 141.232 436.297 137.556C433.198 136.201 431.134 133.522 430.867 130.507L425.877 98.8249L457.177 90.8245Z" fill="#FCC5B6"/>
<path d="M443.674 128.566C438.538 129.367 434.964 126.972 431.981 123.869C431.111 122.965 429.516 121.117 429.371 121.027C429.371 121.027 427.605 121.674 426.507 122.36C424.742 123.459 424.895 125.771 425.343 127.628C426.488 132.381 428.701 137.392 433.49 139.822C436.331 141.263 439.703 141.592 442.965 141.892C448.26 142.378 453.891 142.817 458.656 140.73C462.694 138.963 465.561 135.566 467.274 131.9C469.115 127.963 467.789 120.585 461.632 119.76C461.632 119.76 458.577 122.777 456.702 123.867C454.325 125.251 446.484 128.127 443.674 128.566Z" fill="#A6BDFF"/>
<path d="M437.058 140.597L436.49 140.175C430.96 136.076 427.319 130.102 426.5 123.786C426.47 123.548 426.665 123.332 426.936 123.306C427.207 123.278 427.452 123.449 427.484 123.688C428.245 129.57 431.543 135.144 436.567 139.083C437.477 136.657 438.628 134.29 439.995 132.037C440.124 131.825 440.423 131.744 440.665 131.858C440.906 131.97 440.998 132.233 440.868 132.445C439.413 134.845 438.206 137.377 437.28 139.973L437.058 140.597Z" fill="#382A73"/>
<path d="M439.966 181.252H439.951C439.678 181.245 439.463 181.046 439.471 180.806C439.706 173.659 440.13 166.359 440.539 159.299C440.949 152.242 441.373 144.945 441.608 137.805C441.615 137.566 441.851 137.379 442.116 137.383C442.39 137.39 442.604 137.591 442.596 137.831C442.361 144.98 441.938 152.282 441.528 159.344C441.119 166.399 440.696 173.693 440.461 180.83C440.453 181.066 440.232 181.252 439.966 181.252Z" fill="#382A73"/>
<path d="M448.7 140.877L448.581 140.28C448.06 137.649 446.579 135.172 444.409 133.303C444.213 133.134 444.211 132.859 444.403 132.688C444.593 132.517 444.907 132.513 445.102 132.682C447.253 134.535 448.771 136.948 449.422 139.532C456.181 136.139 461.656 130.875 464.887 124.649C465 124.43 465.294 124.334 465.542 124.434C465.79 124.534 465.9 124.792 465.787 125.01C462.376 131.586 456.523 137.117 449.306 140.586L448.7 140.877Z" fill="#382A73"/>
<path d="M393.097 203.344C392.827 203.344 392.607 203.154 392.603 202.917C392.534 199.103 392.456 193.133 392.382 187.36C392.306 181.565 392.229 175.573 392.16 171.749C392.156 171.509 392.374 171.31 392.647 171.307C392.91 171.307 393.145 171.495 393.15 171.735C393.218 175.562 393.296 181.554 393.371 187.35C393.447 193.122 393.524 199.091 393.592 202.902C393.597 203.143 393.379 203.34 393.106 203.344H393.097Z" fill="#382A73"/>
<path d="M464.829 161.978C466.819 191.374 471.099 219.937 477.859 248.78C453.413 249.713 430.029 250.164 405.584 251.097C398.897 222.335 394.9 193.09 393.646 163.754C416.953 161.659 441.401 162.118 464.829 161.978Z" fill="white"/>
<path d="M407.293 176.192C421.939 176.347 436.593 175.849 451.173 174.7C451.538 176.264 451.7 178.817 452.066 180.381C436.994 182.021 423.375 182.081 408.178 182.288C407.825 179.794 407.65 178.767 407.293 176.192Z" fill="#6476EA"/>
<path d="M429.976 208.547L420.589 204.481C418.955 203.773 417.487 202.8 416.265 201.613L409.63 195.171C409.082 194.639 408.123 194.653 407.595 195.201C405.986 196.871 405.734 199.244 406.96 201.147L413.546 209.59C413.784 209.894 413.536 210.308 413.115 210.308L392.288 210.326L386.409 210.232C385.39 210.216 384.57 210.962 384.624 211.856L384.654 212.36C384.75 213.936 385.952 215.295 387.668 215.763L389.717 216.324L394.825 228.905C396.379 232.735 400.445 235.336 405.072 235.459L443.925 234.668L446.346 215.15L429.976 208.547Z" fill="#FCC5B6"/>
<path d="M494.04 208.913L466.226 210.674L442.421 213.756L443.913 218.596C445.049 222.281 444.584 226.205 442.608 229.605L439.665 234.668L459.71 241.272L494.791 249.197L498.801 217.498L494.04 208.913Z" fill="#A6BDFF"/>
<path d="M401.303 232.909C401.102 232.909 400.914 232.801 400.84 232.627L394.88 218.603C394.784 218.378 394.913 218.128 395.169 218.044C395.424 217.959 395.71 218.074 395.807 218.299L401.767 232.323C401.862 232.548 401.732 232.798 401.477 232.882C401.42 232.901 401.361 232.909 401.303 232.909Z" fill="black"/>
<path d="M414.104 210.897C414.009 210.897 413.915 210.893 413.821 210.887C413.549 210.871 413.343 210.662 413.362 210.424C413.382 210.184 413.62 210.004 413.89 210.02C414.658 210.068 415.45 209.859 416.061 209.448C416.278 209.303 416.589 209.338 416.755 209.529C416.92 209.72 416.88 209.993 416.663 210.139C415.937 210.627 415.019 210.897 414.104 210.897Z" fill="black"/>
<path d="M508.812 210.971C508.792 210.971 508.771 210.97 508.75 210.968C494.578 209.403 483.252 209.139 472.025 210.112C471.751 210.139 471.51 209.961 471.484 209.723C471.457 209.483 471.655 209.271 471.927 209.246C483.231 208.267 494.626 208.53 508.873 210.105C509.145 210.135 509.337 210.353 509.303 210.59C509.271 210.811 509.058 210.971 508.812 210.971Z" fill="#382A73"/>
<path d="M458.015 236.123C457.939 236.123 457.862 236.107 457.79 236.075C457.547 235.965 457.45 235.703 457.576 235.49C461.279 229.145 461.229 221.285 457.445 214.977C457.317 214.765 457.41 214.502 457.653 214.39C457.893 214.278 458.194 214.36 458.32 214.572C462.253 221.127 462.304 229.293 458.456 235.887C458.369 236.037 458.195 236.123 458.015 236.123Z" fill="#382A73"/>
<path d="M448.395 234.018C448.957 234.455 449.232 234.276 449.335 234.208C449.876 233.857 450.141 232.717 449.825 232.105C449.518 231.509 448.959 231.412 448.539 231.518C448.103 231.629 447.633 232.012 447.745 232.728C447.838 233.321 448.056 233.755 448.395 234.018ZM449.035 235.171C448.671 235.171 448.229 235.049 447.739 234.668C447.219 234.263 446.891 233.65 446.764 232.846C446.58 231.669 447.412 230.899 448.265 230.683C449.105 230.468 450.193 230.715 450.726 231.746C451.242 232.744 450.844 234.31 449.923 234.908C449.759 235.014 449.449 235.171 449.035 235.171Z" fill="#382A73"/>
<path d="M406.384 81.4437C405.353 78.8481 405.05 76.0803 404.753 73.3446C404.608 72.0055 404.463 70.6675 404.319 69.3284C404.148 67.7494 403.981 66.128 404.463 64.5995C404.982 62.9575 406.302 61.4887 408.083 60.8128C409.863 60.1358 412.08 60.3309 413.566 61.4267C414.712 62.2713 415.338 63.5255 415.926 64.7327C416.753 66.4298 417.581 68.1258 418.408 69.823C419.237 71.5247 420.076 73.2586 420.293 75.1003C420.647 78.1079 419.305 81.0673 417.698 83.7398C417.042 84.8277 416.31 85.9212 415.205 86.6786C410.994 89.5623 407.57 84.4261 406.384 81.4437Z" fill="#382A73"/>
<path d="M409.884 55.5458C412.768 51.9989 418.069 50.6792 423.014 50.3694C432.848 49.7544 442.901 52.2789 450.886 57.3703C453.72 59.1776 456.343 61.3441 458.015 64.0499C461.249 69.2882 460.515 75.7475 462.538 81.4082C463.344 81.1018 464.23 80.948 465.105 80.9847C467.476 81.0846 469.653 82.4076 470.916 84.1771C472.179 85.9465 472.603 88.1061 472.469 90.1923C472.315 92.6146 471.36 95.1013 469.295 96.7089C466.453 98.9225 462.28 99.0154 458.484 98.989C458.84 105.042 455.226 110.898 450.537 115.13C445.012 120.116 437.828 122.638 429.908 122.745C422.742 122.84 417.055 119.405 413.993 113.785C411.308 108.853 410.852 103.243 410.44 97.7853C409.552 85.9901 408.663 74.1961 407.774 62.401C407.597 60.0417 408.319 57.469 409.884 55.5458Z" fill="#FCC5B6"/>
<path d="M441.551 79.4872C442.404 79.5308 443.268 79.6042 443.957 79.8016C444.647 79.999 445.133 80.3444 444.997 80.7093C444.816 81.1935 443.665 81.5378 442.568 81.734C439.972 82.1988 437.14 82.2171 434.433 82.1425C433.13 82.1069 431.694 82.0197 430.962 81.5894C430.34 81.2222 430.446 80.6783 431.146 80.2904C431.639 80.0173 432.347 79.9646 433.07 79.8762C435.906 79.5262 438.695 79.3415 441.551 79.4872Z" fill="#382A73"/>
<path d="M413.152 79.3748C412.311 79.5056 411.462 79.6674 410.802 79.9439C410.142 80.2193 409.704 80.6301 409.886 81.0008C410.128 81.4931 411.315 81.7409 412.431 81.8385C415.069 82.0702 417.887 81.8097 420.569 81.4632C421.859 81.2968 423.274 81.0627 423.946 80.5372C424.517 80.0908 424.342 79.5285 423.596 79.19C423.073 78.9513 422.362 78.9662 421.632 78.9433C418.769 78.8561 415.973 78.9376 413.152 79.3748Z" fill="#382A73"/>
<path d="M438.005 88.6947C438.078 89.8617 438.782 90.7751 439.579 90.7373C440.376 90.6983 440.962 89.7217 440.89 88.5559C440.817 87.3889 440.112 86.4743 439.315 86.5133C438.518 86.5512 437.932 87.5289 438.005 88.6947Z" fill="#1A1A1A"/>
<path d="M417.245 89.8561C417.319 91.0231 418.023 91.9376 418.819 91.8986C419.616 91.8607 420.203 90.8831 420.131 89.7172C420.058 88.5514 419.352 87.6368 418.556 87.6747C417.759 87.7137 417.172 88.6902 417.245 89.8561Z" fill="#1A1A1A"/>
<path d="M427.538 107.358C427.254 107.358 427.022 107.157 427.02 106.907C427.017 106.654 427.247 106.449 427.533 106.447C431.561 106.412 435.511 104.434 437.597 101.407C437.746 101.191 438.065 101.122 438.311 101.253C438.556 101.384 438.635 101.664 438.486 101.88C436.218 105.171 431.923 107.321 427.544 107.358H427.538Z" fill="black"/>
<path d="M433.392 122.665C433.117 122.665 432.887 122.477 432.873 122.234C432.859 121.981 433.078 121.768 433.365 121.754C438.47 121.522 443.512 119.952 447.561 117.331C452.86 113.9 456.571 108.668 457.742 102.978C457.793 102.73 458.062 102.566 458.344 102.609C458.626 102.654 458.814 102.892 458.763 103.14C457.546 109.057 453.687 114.497 448.178 118.064C443.965 120.79 438.725 122.424 433.419 122.665H433.392Z" fill="black"/>
<path d="M462.12 85.3268C461.899 85.2706 461.689 85.1616 461.492 84.9849C459.482 83.1821 458.078 80.2859 456.654 78.1102C455.061 75.6752 451.855 74.9718 450.251 72.5437C449.451 71.3331 450.302 68.3714 449.455 67.1849C449.088 66.6731 447.698 64.1187 447.053 64.0155C438.807 63.4256 431.256 65.4338 423.016 66.0672C418.899 66.3828 414.305 65.6047 409.845 65.5588C407.888 65.5382 405.457 66.2588 404.274 64.7659C403.267 63.4968 402.343 62.168 401.643 60.7462C400.875 59.1856 400.381 57.516 400.379 55.8085C400.373 51.4733 403.422 47.6533 406.343 44.1591C408.616 41.4419 413.189 38.183 416.886 37.2799C420.348 36.4353 424.102 37.5346 427.608 36.8484C430.212 36.3378 432.56 34.8621 435.228 34.7967C438.136 34.7244 440.695 36.324 443.212 37.6046C447.231 39.6494 451.693 41.0161 456.288 41.6094C458.889 41.9456 461.543 42.0385 464.073 42.6651C466.603 43.2916 469.077 44.5562 470.293 46.6033C471.767 49.0831 471.107 52.0941 471.679 54.8458C472.299 57.8304 474.352 60.4238 475.459 63.2971C476.754 66.6513 474.368 70.3646 474.325 73.9058C474.306 75.4905 474.268 77.1429 473.428 78.544C472.289 80.45 469.929 81.4942 467.715 82.4191C466.181 83.0594 467.003 83.6079 465.469 84.2482C464.42 84.6865 463.163 85.5919 462.12 85.3268Z" fill="#382A73"/>
<path d="M425.691 87.8892C425.428 88.4377 424.961 88.9002 424.53 89.3718C423.361 90.649 422.4 92.0546 421.681 93.5395C421.516 93.8826 421.36 94.2441 421.402 94.609C421.459 95.107 421.872 95.5235 422.308 95.8689C423.586 96.8776 425.198 97.5431 426.783 98.1926C427.181 98.3556 427.659 98.5197 428.053 98.3464C428.465 98.1651 428.556 97.7164 428.566 97.3331C428.613 95.5224 427.95 93.7461 427.95 91.9353C427.951 90.4493 428.398 88.977 428.368 87.4922C428.359 87.0171 428.293 86.5283 428.015 86.114C427.737 85.6998 427.203 85.375 426.627 85.4037C426.078 85.4313 425.558 85.8547 425.677 86.3114C425.827 86.8828 425.974 87.3051 425.691 87.8892Z" fill="#FCC5B6"/>
<path d="M426.961 99.1646C426.86 99.1646 426.759 99.1382 426.668 99.0842L422.353 96.4863C420.892 95.6073 420.468 93.8769 421.386 92.5469L424.982 87.3384C425.374 86.7704 425.418 86.0704 425.098 85.468C424.978 85.2396 425.091 84.9688 425.35 84.8621C425.612 84.7565 425.919 84.8552 426.04 85.0836C426.505 85.9625 426.441 86.9827 425.869 87.8112L422.273 93.0197C421.641 93.9354 421.933 95.1276 422.939 95.7335L427.255 98.3326C427.491 98.4749 427.551 98.7583 427.389 98.966C427.289 99.0945 427.127 99.1646 426.961 99.1646Z" fill="black"/>
<path d="M461.727 81.2636C460.747 81.4322 459.756 81.7317 459.047 82.3491C458.22 83.0697 457.892 84.1254 457.782 85.1444C457.673 86.1703 457.769 87.2615 458.408 88.1268C458.992 88.9197 459.974 89.4337 461.001 89.7172C462.797 90.214 464.816 90.0534 466.483 89.2834C467.239 88.9334 467.951 88.432 468.263 87.7343C468.591 87.0022 468.432 86.1817 468.269 85.4083C468.092 84.5752 469.748 83.7261 469.572 82.893C469.457 82.3548 467.596 81.6629 466.951 81.4162C465.459 80.8447 463.274 80.9962 461.727 81.2636Z" fill="#FCC5B6"/>
<path d="M465.75 92.4872C465.484 92.4872 465.258 92.3094 465.233 92.0718C465.009 89.8858 463.332 87.8054 461.057 86.8955C460.797 86.791 460.682 86.5202 460.801 86.2919C460.918 86.0624 461.227 85.9614 461.488 86.0658C464.132 87.1227 466.007 89.4487 466.267 91.9904C466.292 92.2417 466.082 92.4631 465.797 92.4849C465.78 92.4872 465.764 92.4872 465.75 92.4872Z" fill="black"/>
<path d="M449.323 306.059C449.096 306.059 448.9 305.908 448.876 305.705C447.579 294.756 447.444 283.795 447.468 275.468C447.47 275.251 447.671 275.074 447.919 275.074H447.92C448.168 275.075 448.368 275.252 448.368 275.47C448.342 283.777 448.479 294.711 449.771 305.624C449.796 305.841 449.617 306.035 449.37 306.058C449.355 306.059 449.339 306.059 449.323 306.059Z" fill="white"/>
<path d="M438.377 305.518C438.166 305.518 437.977 305.387 437.936 305.198C435.775 295.354 434.122 285.303 433.019 275.322C432.996 275.105 433.176 274.912 433.423 274.892C433.67 274.867 433.89 275.029 433.914 275.246C435.014 285.202 436.663 295.229 438.819 305.048C438.866 305.262 438.706 305.47 438.462 305.511C438.433 305.516 438.405 305.518 438.377 305.518Z" fill="white"/>
<path d="M487.666 289.888C487.619 289.888 487.572 289.881 487.526 289.869C479.901 287.685 472.964 280.176 471.389 272.403C471.346 272.188 471.509 271.983 471.753 271.945C471.999 271.905 472.231 272.05 472.275 272.265C473.796 279.772 480.472 287.017 487.804 289.117C488.04 289.185 488.17 289.407 488.093 289.615C488.031 289.781 487.855 289.888 487.666 289.888Z" fill="white"/>
<path d="M396.576 285.243C396.447 285.243 396.317 285.194 396.229 285.099C396.071 284.93 396.099 284.681 396.291 284.542C401.602 280.723 404.974 274.847 405.309 268.825C405.322 268.607 405.539 268.439 405.781 268.449C406.029 268.46 406.221 268.646 406.208 268.863C405.861 275.105 402.365 281.196 396.861 285.154C396.777 285.213 396.677 285.243 396.576 285.243Z" fill="white"/>
</g>
<mask id="mask5_74_394" style="mask-type:luminance" maskUnits="userSpaceOnUse" x="350" y="235" width="40" height="35">
<path d="M368.55 269.261C357.824 269.261 349.864 261.622 350.77 252.199C351.25 247.206 354.125 242.713 358.315 239.593C362.351 239.069 366.143 237.576 369.265 235.283C370.11 235.187 370.967 235.137 371.833 235.137C382.559 235.137 390.519 242.776 389.613 252.199C388.706 261.622 379.276 269.261 368.55 269.261Z" fill="white"/>
</mask>
<g mask="url(#mask5_74_394)">
<path d="M349.864 269.261H390.519V235.137H349.864V269.261Z" fill="#887FAB"/>
</g>
<path d="M358.315 239.593C361.395 237.3 365.188 235.749 369.265 235.283C366.143 237.576 362.351 239.069 358.315 239.593Z" fill="#6465AB"/>
<path d="M370.366 256.019C368.162 256.019 366.526 254.45 366.713 252.513L367.2 247.45C367.387 245.514 369.324 243.945 371.527 243.945C373.731 243.945 375.366 245.514 375.179 247.45L374.692 252.513C374.507 254.45 372.57 256.019 370.366 256.019Z" fill="white"/>
<path d="M370.308 257.944C368.344 257.944 366.827 257.427 365.799 256.404C364.094 254.707 364.407 252.25 364.42 252.147C364.465 251.824 364.795 251.571 365.163 251.583C365.529 251.595 365.789 251.865 365.746 252.187C365.743 252.213 365.494 254.266 366.841 255.597C367.633 256.382 368.834 256.78 370.439 256.776C375.303 256.767 375.8 252.518 375.818 252.336C375.852 252.015 376.173 251.756 376.539 251.756H376.543C376.91 251.758 377.18 252.022 377.148 252.344C376.947 254.277 375.264 257.935 370.329 257.944H370.308Z" fill="white"/>
<path d="M371.871 260.172H368.134C367.525 260.172 367.184 259.61 367.502 259.133L368.624 257.447H371.906L372.703 259.133C372.93 259.61 372.479 260.172 371.871 260.172Z" fill="white"/>
<path d="M314.135 269.261C303.409 269.261 295.449 261.622 296.355 252.199C297.262 242.776 306.693 235.137 317.418 235.137C328.144 235.137 336.104 242.776 335.198 252.199C334.291 261.622 324.862 269.261 314.135 269.261Z" fill="#887FAB"/>
<path d="M319.555 258.74H306.409C305.187 258.74 304.28 257.871 304.383 256.797L305.245 247.841C305.349 246.767 306.424 245.896 307.645 245.896H320.79C322.012 245.896 322.92 246.767 322.816 247.841L321.954 256.797C321.851 257.871 320.776 258.74 319.555 258.74Z" fill="white"/>
<path d="M326.564 256.364L323.007 255.323L323.562 249.55L327.32 248.509C327.982 248.327 328.603 248.749 328.545 249.344L327.95 255.53C327.892 256.124 327.191 256.546 326.564 256.364Z" fill="white"/>
<path d="M422.126 269.261C417.854 269.261 414.022 268.049 411.012 265.996C411.83 266.141 412.647 266.273 413.456 266.398C418.464 267.171 423.5 267.819 428.556 268.33C426.511 268.934 424.346 269.261 422.126 269.261Z" fill="#4A48A3"/>
<path d="M428.556 268.33C423.5 267.819 418.464 267.171 413.456 266.398C412.646 266.273 411.83 266.141 411.012 265.996C406.465 262.894 403.799 257.869 404.345 252.199C404.458 251.036 404.699 249.901 405.057 248.804C405.231 249.568 405.406 250.333 405.584 251.097C418.323 250.61 430.772 250.256 443.235 249.894C443.278 250.648 443.264 251.417 443.189 252.199C442.469 259.671 436.39 266.021 428.556 268.33Z" fill="#6465AB"/>
<path d="M405.584 251.097C405.406 250.333 405.231 249.568 405.057 248.804C407.598 241.008 416.006 235.137 425.409 235.137C435.245 235.137 442.756 241.562 443.235 249.894C430.773 250.256 418.323 250.61 405.584 251.097Z" fill="#887FAB"/>
<path d="M437.54 252.717L437.374 254.444C437.255 255.675 436.024 256.673 434.622 256.673H431.726C430.523 256.673 429.631 255.817 429.732 254.76L430.063 251.323C430.063 251.323 428.231 249.928 424.524 249.928C420.817 249.928 418.586 251.323 418.586 251.323L418.255 254.76C418.153 255.817 417.095 256.673 415.894 256.673H413.3C411.73 256.673 410.564 255.555 410.698 254.177L410.84 252.699C410.929 251.775 411.527 250.908 412.445 250.389C414.576 249.187 418.898 247.253 424.648 247.253C430.404 247.253 434.421 249.192 436.355 250.393C437.189 250.91 437.63 251.784 437.54 252.717Z" fill="#F95598"/>
<path d="M150.677 161.66L156.559 160.728L163.308 161.745L167.455 161.998L167.262 164.71L156.944 165.641L151.256 166.318L150.677 161.66Z" fill="#FCC5B6"/>
<path d="M87.9336 136.761C87.8291 137.233 87.7312 137.741 87.9637 138.176C88.2785 138.765 89.0687 139.003 89.7793 139.185C91.2553 139.562 92.7313 139.939 94.2086 140.315C95.0773 140.538 96.117 140.73 96.8041 140.213C97.2782 139.857 97.418 139.272 97.529 138.733C98.1873 135.539 98.8457 132.347 99.5027 129.153C99.6869 128.26 99.8292 127.225 99.1409 126.55C97.4193 124.859 91.5714 125.786 90.2077 127.606C88.5214 129.854 88.4979 134.19 87.9336 136.761Z" fill="#FCC5B6"/>
<path d="M113.834 249.255L113.01 272.956L123.076 271.75L124.357 248.251L113.834 249.255Z" fill="#FCC5B6"/>
<path d="M131.617 251.653C131.617 252.257 131.617 274.965 131.617 274.965L142.367 273.558V250.649L131.617 251.653Z" fill="#FCC5B6"/>
<path d="M74.1246 138.741L88.2316 135.958L97.5879 136.552L113.375 141.039L112.084 153.157L112.77 154.544C115.154 157.778 113.878 161.117 109.993 162.906L107.706 164.55L106.513 171.106C106.059 173.363 106.08 175.676 106.576 177.927L107.661 182.847L94.3995 183.892C88.5647 184.353 82.6828 183.918 77.0178 182.608L73.5943 181.817L76.5711 172.881C77.1184 171.236 76.8924 169.466 75.9441 167.967L71.3385 155.97L66.3579 146.506L71.1595 140.485C71.8662 139.599 72.9229 138.977 74.1246 138.741Z" fill="#F95598"/>
<path d="M76.2262 144.495C74.3257 141.917 70.0609 141.84 68.0429 144.35L53.6353 162.267C50.3083 166.418 53.0509 172.198 58.7494 173.045L82.3549 176.552L82.9218 170.339L67.4407 164.457L79.2945 148.66L76.2262 144.495Z" fill="#F95598"/>
<path d="M131.472 267.73C135.025 270.011 138.876 270.381 142.466 268.145L142.489 268.149L149.773 276.974L162.523 282.75C163.696 283.281 164.464 284.314 164.549 285.47L164.725 287.865C164.804 288.932 163.84 289.835 162.622 289.835H129.899C128.917 289.835 128.161 289.073 128.295 288.219L130.786 272.352L131.472 267.73Z" fill="#5C49D8"/>
<path d="M112.746 267.128L113.928 267.94C116.319 269.583 119.682 269.568 122.052 267.902L123.154 267.128L129.445 277.979L136.536 282.401L137.108 289.835H110.831C109.792 289.835 108.996 289.023 109.15 288.121L112.746 267.128Z" fill="#5C49D8"/>
<path d="M75.991 175.797C75.9779 175.797 75.9636 175.796 75.9505 175.793C75.8578 175.773 75.8029 175.691 75.8251 175.611C76.5592 172.981 76.456 170.226 75.526 167.644C75.4972 167.565 75.5469 167.48 75.637 167.455C75.7284 167.43 75.8238 167.474 75.8525 167.553C76.8021 170.188 76.9066 172.999 76.1569 175.683C76.1386 175.751 76.0681 175.797 75.991 175.797Z" fill="#1A1A1A"/>
<path d="M65.8 166.948C65.77 166.948 65.7386 166.942 65.7112 166.928C65.6302 166.885 65.6041 166.792 65.6524 166.721L67.2264 164.414C67.2747 164.342 67.3805 164.32 67.4615 164.362C67.5425 164.404 67.5686 164.496 67.5203 164.569L65.9463 166.876C65.915 166.923 65.8575 166.948 65.8 166.948Z" fill="#1A1A1A"/>
<path d="M72.1 158.211C71.989 158.211 71.8845 158.148 71.8505 158.05C70.6227 154.539 70.1028 150.901 70.3053 147.233C70.3118 147.106 70.4359 147.011 70.5796 147.015C70.7233 147.021 70.8343 147.129 70.8278 147.255C70.6279 150.87 71.14 154.456 72.3495 157.915C72.3926 158.036 72.3142 158.164 72.1771 158.202C72.151 158.209 72.1248 158.211 72.1 158.211Z" fill="white"/>
<path d="M129.899 290.065C129.356 290.065 128.839 289.858 128.482 289.499C128.124 289.139 127.962 288.66 128.037 288.188L129.991 275.736C130.012 275.611 130.144 275.523 130.286 275.54C130.428 275.557 130.529 275.673 130.509 275.799L128.554 288.25C128.5 288.591 128.618 288.937 128.875 289.197C129.134 289.457 129.506 289.606 129.899 289.606C130.043 289.606 130.161 289.709 130.161 289.835C130.161 289.963 130.043 290.065 129.899 290.065Z" fill="white"/>
<path d="M148.245 278.253C148.087 278.253 147.928 278.227 147.779 278.176C147.331 278.018 147.042 277.674 146.811 277.398L141.651 271.242C141.566 271.14 141.591 270.997 141.707 270.921C141.824 270.847 141.987 270.868 142.072 270.97L147.231 277.126C147.476 277.417 147.686 277.649 147.972 277.749C148.31 277.867 148.745 277.745 148.942 277.477C149.021 277.37 149.183 277.34 149.304 277.408C149.426 277.477 149.46 277.619 149.381 277.726C149.137 278.057 148.69 278.253 148.245 278.253Z" fill="white"/>
<path d="M126.955 276.818C126.866 276.818 126.78 276.778 126.732 276.707C125.372 274.707 124.129 272.618 123.035 270.498C122.976 270.383 123.034 270.246 123.166 270.195C123.296 270.142 123.452 270.194 123.512 270.308C124.596 272.413 125.83 274.486 127.18 276.472C127.254 276.581 127.214 276.721 127.09 276.786C127.048 276.808 127.001 276.818 126.955 276.818Z" fill="white"/>
<path d="M87.3485 135.554C88.0355 135.245 88.8454 135.259 89.6173 135.285C92.0116 135.367 94.4033 135.505 96.7897 135.696C97.4062 135.746 98.0476 135.806 98.5779 136.089C99.1931 136.417 99.5863 137.043 99.5758 137.676C99.5654 138.308 99.15 138.923 98.5243 139.235C97.7576 139.617 96.8119 139.536 95.9381 139.443C94.0075 139.236 92.0769 139.031 90.1464 138.826C89.0204 138.705 87.7586 138.558 86.843 137.916C85.8398 137.211 86.2121 136.065 87.3485 135.554Z" fill="#F95598"/>
<path d="M75.2843 177.107L69.9968 192.462C65.992 201.678 73.4883 211.622 84.7112 211.978L132.945 213.504L130.597 257.03L133.341 258.477C136.703 260.249 140.951 260.208 144.197 258.279C144.879 257.874 145.332 257.499 145.332 257.218C145.332 256.366 147.41 224.365 148.421 206.276C148.727 200.819 144.214 196.072 138.047 195.362L109.882 192.117L106.465 178.045L102.671 178.781C94.3849 180.388 85.7614 180.041 77.676 177.777L75.2843 177.107Z" fill="#382A73"/>
<path d="M129.101 207.313L125.898 256.842C121.652 259.329 116.101 259.265 111.931 256.678L111.59 256.467L113.939 206.749L129.101 207.313Z" fill="#382A73"/>
<path d="M136.79 258.385H136.771C136.628 258.376 136.519 258.265 136.53 258.139L140.366 210.438C140.477 209.059 139.97 207.727 138.937 206.684C137.905 205.642 136.472 205.016 134.903 204.922L91.0699 202.289C90.9262 202.28 90.8178 202.171 90.827 202.044C90.8374 201.917 90.9602 201.826 91.1065 201.83L134.939 204.464C136.647 204.566 138.208 205.247 139.331 206.383C140.456 207.518 141.009 208.97 140.887 210.471L137.051 258.171C137.04 258.293 136.925 258.385 136.79 258.385Z" fill="white"/>
<path d="M55.463 289.35H52.0461L67.6354 213.929L75.5379 215.055L55.463 289.35Z" fill="#A6BDFF"/>
<path d="M134.014 289.76H137.644L123.122 214.34L115.006 215.466L134.014 289.76Z" fill="#A6BDFF"/>
<path d="M98.3493 289.652H101.979L101.339 214.231L92.7966 215.357L98.3493 289.652Z" fill="#A6BDFF"/>
<path d="M39.2959 179.178V191.529C39.2959 210.451 56.7566 225.79 78.2953 225.79H122.901C128.375 225.79 131.88 220.67 129.312 216.422L101.185 169.892C97.3502 163.548 89.7847 159.637 81.6118 159.771L60.5926 160.116C48.7669 160.31 39.2959 168.788 39.2959 179.178Z" fill="#FFC257"/>
<path d="M136.293 213.788C136.28 213.788 136.268 213.787 136.257 213.786C135.214 213.656 134.155 213.62 133.105 213.676C132.964 213.683 132.837 213.587 132.828 213.461C132.819 213.334 132.929 213.226 133.072 213.218C134.158 213.159 135.254 213.197 136.33 213.332C136.472 213.349 136.571 213.465 136.552 213.591C136.532 213.706 136.421 213.788 136.293 213.788Z" fill="white"/>
<path d="M113.374 141.039L123.629 167.631L147.35 161.532L151.544 161.279L153.859 166.106L150.243 169.156L122.72 178.005C119.164 179.149 115.229 177.515 113.977 174.374L104.308 150.12L113.374 141.039Z" fill="#F95598"/>
<path d="M167.262 164.71L170.444 163.777L175.108 160.894C175.362 160.737 175.346 160.402 175.077 160.264C174.714 160.077 174.267 160.065 173.89 160.231L169.48 162.168L165.719 162.083L167.262 164.71Z" fill="#FCC5B6"/>
<path d="M164.273 163.185L169.095 162.083L170.582 158.162C170.695 157.864 170.409 157.568 170.056 157.616C169.394 157.708 168.829 158.083 168.547 158.616L167.31 160.961L162.248 162.338L164.273 163.185Z" fill="#FCC5B6"/>
<path d="M161.477 162.93L166.008 161.321L165.928 158.455C165.921 158.148 165.584 157.934 165.249 158.021C164.767 158.147 164.418 158.514 164.364 158.954L164.128 160.866L160.223 162.168L161.477 162.93Z" fill="#FCC5B6"/>
<path d="M109.769 145.979H109.759C109.615 145.974 109.503 145.868 109.508 145.742C109.583 143.956 110.449 142.206 111.882 140.939C111.983 140.85 112.149 140.849 112.251 140.938C112.353 141.028 112.354 141.173 112.253 141.263C110.91 142.448 110.1 144.087 110.031 145.758C110.025 145.882 109.909 145.979 109.769 145.979Z" fill="white"/>
<path d="M161.959 165.087C161.829 165.087 161.717 165.003 161.7 164.888C161.681 164.762 161.781 164.647 161.923 164.629L167.655 163.955C167.658 163.801 167.603 163.651 167.497 163.525C167.355 163.359 167.139 163.258 166.903 163.245L164.207 163.11L160.591 162.284C160.451 162.252 160.368 162.127 160.404 162.004C160.44 161.881 160.582 161.808 160.723 161.84L164.314 162.66L166.931 162.788C167.322 162.807 167.681 162.976 167.915 163.251C168.15 163.527 168.232 163.877 168.144 164.211L168.102 164.364L161.993 165.085L161.959 165.087Z" fill="#382A73"/>
<path d="M106.042 111.934L106.151 125.049C106.187 129.204 102.406 132.608 97.6779 132.683L91.7269 132.776L84.6329 124.623C84.4095 124.368 84.2149 124.095 84.049 123.808L82.7389 121.538C80.248 117.227 79.8574 112.214 81.6561 107.646L82.8512 104.611L87.2858 103.092C91.3729 100.883 96.5677 101.038 100.473 103.486L101.937 103.597C102.638 104.036 103.238 104.584 103.713 105.214C105.212 107.208 106.022 109.542 106.042 111.934Z" fill="#FCC5B6"/>
<path d="M87.1997 101.2L95.1649 100.747C100.98 100.416 106.202 104.088 107.417 109.363L108.393 112.913L104.017 113.483C100.407 113.952 97.891 116.877 98.3638 120.056L100.505 134.466L86.3088 135.411C80.1344 135.471 75.133 130.737 75.3498 125.037L75.9624 111.863C76.1793 106.155 81.0318 101.551 87.1997 101.2Z" fill="#382A73"/>
<path d="M96.2085 116.619C95.1126 117.457 94.7508 118.874 95.0329 120.126C95.3151 121.378 96.1511 122.484 97.1242 123.433C97.5461 123.844 98.062 124.258 98.6903 124.274C99.5759 124.297 100.217 123.537 100.544 122.814C101.363 121.005 101.171 118.955 100.264 117.199C99.5276 115.769 97.5774 115.571 96.2085 116.619Z" fill="#FCC5B6"/>
<path d="M97.3658 120.552H97.358C97.2143 120.548 97.1007 120.443 97.1046 120.316C97.1372 119.323 97.6924 118.369 98.5897 117.765C98.7047 117.689 98.868 117.707 98.9555 117.808C99.0443 117.909 99.0221 118.052 98.9072 118.129C98.1443 118.642 97.6545 119.486 97.6271 120.329C97.6232 120.453 97.5069 120.552 97.3658 120.552Z" fill="#382A73"/>
<path d="M248.504 60.4674C242.062 76.6035 224.106 87.11 205.807 92.9439C185.809 99.3171 164.097 101.454 142.981 99.2391C134.342 104.699 125.337 109.372 115.859 113.755C119.976 108.153 124.096 102.555 128.21 96.9533C127.975 96.9051 127.737 96.8569 127.502 96.8064C114.542 94.0685 105.874 89.1893 103.079 77.7166C99.9598 64.922 101.843 51.9208 109.132 40.4114C117.782 26.7492 132.552 16.5778 148.895 10.3905C165.239 4.20545 183.128 1.75211 200.903 0.976401C210.412 0.563301 220.373 0.698706 228.832 4.53365C241.28 10.1771 247.796 22.6756 250.134 34.8093C251.777 43.3467 251.767 52.2972 248.504 60.4674Z" fill="#FFC257"/>
<path d="M162.319 22.5746C163.734 22.5746 165.185 22.6217 166.691 22.6802C170.948 22.8466 174.894 23.0589 178.65 23.3974C179.789 21.1919 181.513 19.2595 183.988 17.9169C184.134 17.8366 184.282 17.7609 184.433 17.6863C184.213 17.6633 183.991 17.6427 183.77 17.622C178.595 17.1596 173.242 16.6799 168.114 17.7758C164.907 18.4608 161.213 20.0662 158.794 22.6974C159.95 22.6079 161.122 22.5746 162.319 22.5746ZM179.722 23.4972C182.541 23.7715 185.256 24.1226 187.922 24.5839C188.086 24.4244 188.24 24.2592 188.385 24.087C189.529 22.7295 190.032 20.6353 188.779 19.2561C188.152 18.5653 187.218 18.1843 186.167 17.9525C185.596 18.1568 185.047 18.3989 184.526 18.6823C182.341 19.8677 180.783 21.5579 179.722 23.4972ZM179.288 24.3613C178.34 26.4325 177.901 28.7298 177.827 30.9732C179.615 29.7488 181.468 28.6036 183.379 27.5479C183.56 27.448 183.741 27.3482 183.923 27.2495C184.993 26.6632 186.086 26.0642 187.029 25.3493C184.516 24.9339 181.949 24.6137 179.288 24.3613ZM189.064 24.7881C190.208 25.0016 191.343 25.2357 192.476 25.4939C198.722 26.9202 203.542 28.9019 207.185 31.5458C206.494 26.7791 204.028 22.6274 200.271 19.9916C196.695 17.482 191.881 16.5938 187.785 17.49C188.474 17.7689 189.089 18.1533 189.581 18.6949C191.155 20.4288 190.584 22.9889 189.208 24.6218C189.161 24.678 189.112 24.7342 189.064 24.7881ZM174.713 34.4444C175.524 34.8483 176.347 35.3199 177.184 35.8615C177.001 34.9011 176.876 33.8844 176.822 32.839C176.108 33.3611 175.404 33.897 174.713 34.4444ZM172.234 36.7669C173.801 36.7669 175.37 36.9321 176.905 37.281C177.114 37.328 177.32 37.3785 177.526 37.4324C177.507 37.3487 177.487 37.2672 177.467 37.1834C176.251 36.3343 175.069 35.6343 173.92 35.0847C173.248 35.6343 172.59 36.1954 171.946 36.768C172.042 36.7669 172.138 36.7669 172.234 36.7669ZM157.992 23.6739C157.476 24.3842 157.05 25.1576 156.741 25.9965C155.272 29.9806 156.89 34.2126 158.504 37.0618C158.618 37.2626 158.735 37.4623 158.854 37.6608C160.471 35.4358 162.407 33.9475 164.639 33.2188C167.427 32.3077 170.474 32.5705 173.751 33.9968C174.74 33.2039 175.755 32.4362 176.793 31.6961C176.793 29.2072 177.213 26.6127 178.237 24.2649C174.595 23.9447 170.768 23.7405 166.646 23.5787C163.572 23.4594 160.732 23.3882 157.992 23.6739ZM180.844 38.5983C181.327 38.8152 181.8 39.0481 182.261 39.2983C182.405 37.4106 182.584 35.4714 183.31 33.6457C184.167 31.4873 186.201 29.0075 189.337 28.5198C192.408 28.0436 195.263 29.6042 197.893 31.3633C200.849 33.3405 204.029 35.6091 206.884 38.2713C207.299 36.6889 207.458 34.9584 207.347 33.1328C207.342 33.0364 207.334 32.94 207.327 32.8436C207.216 32.7541 207.103 32.6669 206.989 32.5797C203.417 29.8509 198.585 27.8187 192.218 26.3648C190.912 26.0665 189.6 25.8014 188.275 25.5639C187.152 26.5404 185.791 27.2863 184.465 28.0126C184.283 28.1113 184.104 28.21 183.924 28.3087C181.816 29.4745 179.776 30.7506 177.819 32.1253C177.846 33.4369 177.994 34.714 178.23 35.8959C178.283 36.161 178.339 36.425 178.399 36.6889C179.202 37.2626 180.017 37.8995 180.844 38.5983ZM159.422 38.5639C159.737 39.0424 160.069 39.5129 160.415 39.9753C163.394 38.2345 166.877 37.1215 170.439 36.8381C171.253 36.091 172.09 35.3624 172.947 34.6532C170.068 33.4724 167.41 33.2728 164.996 34.0622C162.843 34.7657 160.977 36.2746 159.422 38.5639ZM158.845 39.4739C158.47 40.1061 158.116 40.7878 157.782 41.5199C157.719 41.6576 157.658 41.7953 157.598 41.9341C158.221 41.4189 158.882 40.9381 159.575 40.4905C159.323 40.1555 159.08 39.817 158.845 39.4739ZM178.945 38.8209C179.41 40.4607 179.964 42.0856 180.516 43.6817C180.942 43.6519 181.372 43.6404 181.803 43.6496C181.937 42.7683 182.046 41.8836 182.127 40.9931C181.734 40.6478 181.348 40.3069 180.972 39.9719C180.726 39.755 180.482 39.5427 180.239 39.335C179.816 39.1503 179.384 38.9781 178.945 38.8209ZM160.983 40.7086C161.865 41.809 162.834 42.8555 163.88 43.8412C165.551 41.7493 167.385 39.747 169.357 37.8524C166.377 38.2472 163.492 39.2443 160.983 40.7086ZM182.828 43.707C184.039 43.8149 185.242 44.0616 186.418 44.4368C185.246 43.6152 184.132 42.7155 183.072 41.8125C183.004 42.4459 182.922 43.0782 182.828 43.707ZM180.823 44.5642C181.001 45.0771 181.18 45.5935 181.356 46.111C181.466 45.5923 181.566 45.0702 181.656 44.5469C181.377 44.5435 181.099 44.5492 180.823 44.5642ZM146.787 43.4304C147.026 43.8803 147.256 44.2796 147.459 44.6158C147.768 45.1287 148.09 45.6336 148.424 46.1316C149.609 43.0403 151.127 40.0476 152.962 37.1972C150.519 39.0562 148.219 41.1102 146.787 43.4304ZM207.713 39.0653C209.187 40.5158 210.556 42.0798 211.736 43.7712C212.386 44.7053 212.961 45.6577 213.456 46.6193C213.562 46.1133 213.632 45.605 213.666 45.0943C213.922 41.1595 211.976 37.024 208.398 33.757C208.448 35.647 208.216 37.4348 207.713 39.0653ZM188.882 44.9038C191.432 46.3864 194.214 47.3262 197.221 46.9946C200.385 46.6457 203.469 44.7202 205.267 41.9685C205.802 41.1504 206.238 40.2564 206.571 39.2983C203.656 36.503 200.342 34.1322 197.272 32.0794C194.828 30.4442 192.198 28.9891 189.516 29.4057C186.815 29.8257 185.038 32.0243 184.277 33.9418C183.554 35.7617 183.403 37.7606 183.258 39.693C183.254 39.7504 183.249 39.8078 183.245 39.8663C185.446 41.2146 187.359 42.9381 188.882 44.9038ZM190.596 47.5098L190.605 47.527L190.616 47.5236L190.596 47.5098ZM164.604 44.501C166.494 46.173 168.613 47.6486 170.895 48.8765C172.628 46.2923 175.85 44.3358 179.486 43.7953C178.878 42.0431 178.275 40.2553 177.786 38.4457C177.413 38.3367 177.033 38.2392 176.649 38.1519C174.768 37.7251 172.83 37.5862 170.917 37.7021C168.619 39.8319 166.503 42.1085 164.604 44.501ZM149.125 47.1392C150.002 48.3555 150.952 49.5202 151.968 50.6287C152.088 50.0894 152.241 49.5569 152.426 49.0348C153.146 47.0129 154.336 45.162 155.868 43.5452C156.157 42.7488 156.477 41.9616 156.832 41.1848C157.267 40.2312 157.737 39.3545 158.244 38.5593C158.016 38.1978 157.797 37.8318 157.587 37.4623C155.888 34.4639 154.191 29.9921 155.766 25.7199C156.01 25.0544 156.324 24.4278 156.691 23.8392C156.225 23.9092 155.76 23.9918 155.296 24.087C151.221 24.9293 147.984 26.7756 146.184 29.2852C143.076 33.6147 144.65 38.9816 146.273 42.4046C148.283 39.4865 151.521 37.0102 154.63 34.8081C154.826 34.6693 155.105 34.6762 155.292 34.8219C155.48 34.9688 155.518 35.2132 155.384 35.3991C152.724 39.0734 150.626 43.0219 149.125 47.1392ZM171.769 49.3297C172.932 49.9127 174.134 50.4313 175.368 50.88C176.749 51.3826 178.175 51.8026 179.62 52.1744C180.12 50.7985 180.553 49.4066 180.915 47.9986C180.554 46.8764 180.169 45.7633 179.786 44.6628C176.386 45.1264 173.365 46.9349 171.769 49.3297ZM152.831 51.5398C153.218 51.9346 153.612 52.3201 154.016 52.6988C154.131 50.4646 154.484 48.2396 155.073 46.0616C154.375 47.076 153.811 48.1616 153.405 49.3033C153.145 50.0308 152.955 50.779 152.831 51.5398ZM146.218 44.4632C145.627 45.6818 145.288 46.9705 145.294 48.3394C145.302 49.8576 145.732 51.2931 146.443 52.7057C146.851 50.8674 147.374 49.0509 148.006 47.2642C147.497 46.539 147.011 45.7954 146.554 45.0369C146.448 44.8614 146.335 44.6697 146.218 44.4632ZM180.606 52.4199C181.138 52.5485 181.673 52.6724 182.208 52.7917C182.004 51.7911 181.751 50.7974 181.467 49.8094C181.207 50.6861 180.92 51.557 180.606 52.4199ZM183.293 53.0293C184 53.1796 184.705 53.3265 185.405 53.4711C185.814 51.666 186.598 49.9872 188.198 48.7457C188.638 48.4037 189.133 48.1134 189.669 47.8758C189.396 47.3778 189.098 46.8913 188.778 46.4174C186.845 45.4064 184.774 44.7787 182.683 44.5986C182.489 45.7323 182.251 46.8569 181.97 47.9734C182.499 49.635 182.969 51.3207 183.293 53.0293ZM186.407 53.6788C188.174 54.046 189.968 54.4281 191.739 54.8848C191.616 52.7493 191.04 50.6516 190.092 48.694C189.649 48.8948 189.24 49.137 188.876 49.4204C187.48 50.5025 186.781 52.0218 186.407 53.6788ZM155.006 53.5973C156.054 54.5141 157.15 55.3771 158.291 56.1792C158.29 52.7022 159.904 48.9763 163.286 44.5974C162.147 43.5406 161.096 42.4126 160.145 41.2249C158.906 42.0282 157.776 42.9485 156.789 43.9698C155.679 47.0864 155.084 50.3384 155.006 53.5973ZM197.502 47.8701C199.516 48.6527 201.409 50.0022 203.141 51.8933C204.371 53.237 205.403 54.7264 206.216 56.3065C209.562 54.0792 211.967 51.1818 213.048 48.0812C212.467 46.7823 211.737 45.4959 210.862 44.2406C209.827 42.7569 208.64 41.3718 207.36 40.0751C207.033 40.9059 206.631 41.6885 206.156 42.416C204.199 45.4087 200.973 47.4386 197.502 47.8701ZM192.776 55.1625C193.586 55.3874 194.388 55.6295 195.18 55.8957C196.087 56.201 197.006 56.5601 197.915 56.9698C197.267 55.2061 196.363 53.5158 195.208 51.9621C194.141 50.5254 192.906 49.2655 191.555 48.2109C191.377 48.2511 191.201 48.297 191.028 48.3475C192.072 50.4979 192.687 52.8124 192.776 55.1625ZM199.192 57.5849C199.922 57.9589 200.638 58.3663 201.329 58.8081C201.909 58.5832 202.481 58.3399 203.044 58.0794C203.857 57.7019 204.633 57.2888 205.368 56.8447C204.579 55.2715 203.563 53.7889 202.343 52.4578C200.432 50.3705 198.333 48.9924 196.104 48.3635C195.023 48.0571 193.902 47.9481 192.834 48.025C194.02 49.0268 195.108 50.1812 196.067 51.4698C197.181 52.9696 198.07 54.5899 198.731 56.2813C199.102 55.9141 199.464 55.5423 199.821 55.1636C199.986 54.9869 200.278 54.9479 200.496 55.073C200.714 55.198 200.79 55.4482 200.672 55.6525L200.039 56.7552C199.919 56.9618 199.643 57.0536 199.401 56.9732C199.298 57.0742 199.195 57.1752 199.092 57.275C199.126 57.3783 199.16 57.4816 199.192 57.5849ZM199.55 58.854C199.595 59.0353 199.638 59.2154 199.677 59.3967C199.847 59.3417 200.015 59.2854 200.184 59.2269C199.975 59.0995 199.763 58.9756 199.55 58.854ZM198.183 58.1287C197.267 58.9664 196.315 59.7685 195.327 60.5374C196.464 60.3044 197.592 60.0279 198.704 59.6997C198.595 59.1959 198.469 58.6945 198.321 58.1988C198.275 58.1747 198.228 58.1517 198.183 58.1287ZM192.784 56.1091C192.771 56.6703 192.728 57.2326 192.653 57.7937C192.574 58.3904 192.461 58.9974 192.353 59.5849C192.259 60.0956 192.166 60.5982 192.093 61.0939C192.474 61.04 192.857 60.9826 193.24 60.9206C194.64 59.9097 195.978 58.831 197.243 57.6881C196.426 57.3221 195.609 57.0042 194.813 56.7357C194.145 56.5108 193.468 56.3031 192.784 56.1091ZM171.301 50.1307C170.887 50.9465 170.636 51.8152 170.583 52.7103C170.388 55.9279 172.456 58.7496 175.067 61.1214C175.713 60.2803 176.332 59.3038 176.928 58.1919C177.831 56.5039 178.621 54.7815 179.299 53.0293C177.836 52.6529 176.386 52.2249 174.977 51.7119C173.717 51.2541 172.488 50.7239 171.301 50.1307ZM152.693 52.7619C152.506 55.5618 153.197 58.4799 154.721 61.1708C154.196 58.7978 153.948 56.3788 153.977 53.9622C153.539 53.5709 153.111 53.1704 152.693 52.7619ZM186.237 54.5681C186.052 55.7397 185.99 56.9514 185.932 58.107C185.873 59.2717 185.787 60.4869 185.638 61.7204C187.391 61.6126 189.208 61.4634 191.042 61.2339C191.123 60.6338 191.232 60.0348 191.342 59.4404C191.449 58.8632 191.559 58.2665 191.636 57.6893C191.718 57.0696 191.76 56.4488 191.764 55.8303C189.937 55.3484 188.074 54.9502 186.237 54.5681ZM183.46 53.9897C183.517 54.3523 183.565 54.7161 183.607 55.081C183.881 57.524 183.707 59.8179 183.121 61.8547C183.524 61.8352 183.928 61.8157 184.329 61.795C184.42 61.7904 184.513 61.7847 184.606 61.7801C184.759 60.5385 184.846 59.2935 184.909 58.0668C184.97 56.8585 185.034 55.5928 185.234 54.3604C184.645 54.2387 184.053 54.116 183.46 53.9897ZM175.803 61.7686C175.958 61.8983 176.113 62.028 176.268 62.1553C177.597 62.0865 178.921 62.0325 180.234 61.9786C180.832 61.9534 181.44 61.9293 182.05 61.9029C182.67 59.9039 182.862 57.6181 182.587 55.1694C182.534 54.6977 182.468 54.2284 182.388 53.7591C181.687 53.6053 180.985 53.4458 180.285 53.276C179.591 55.0741 178.782 56.8413 177.855 58.574C177.205 59.7903 176.522 60.8541 175.803 61.7686ZM159.34 56.8929C161.243 58.1425 163.26 59.2303 165.362 60.1311C167.655 61.1157 170.053 61.873 172.497 62.402C173.022 62.3584 173.549 62.3194 174.075 62.285C174.205 62.1485 174.333 62.0084 174.459 61.8639C171.625 59.321 169.343 56.2492 169.56 52.6632C169.621 51.6224 169.923 50.6149 170.418 49.674C168.099 48.4324 165.945 46.9429 164.016 45.2561C160.602 49.7176 159.102 53.4412 159.34 56.8929ZM185.518 62.6293C185.498 62.7647 185.477 62.8989 185.456 63.0332C186.809 62.8702 188.146 62.6327 189.455 62.3194C188.118 62.4537 186.8 62.5524 185.518 62.6293ZM182.823 62.7692C182.763 62.9368 182.699 63.102 182.631 63.2661C183.228 63.2397 183.821 63.1996 184.413 63.1445C184.437 62.993 184.461 62.8404 184.483 62.6878C184.452 62.6901 184.42 62.6912 184.39 62.6935C183.87 62.7199 183.347 62.7451 182.823 62.7692ZM177.554 63.1605C178.879 63.2741 180.205 63.3201 181.526 63.2994C181.596 63.141 181.663 62.9804 181.728 62.8175C181.242 62.8381 180.759 62.8576 180.281 62.8771C179.308 62.9173 178.328 62.9574 177.346 63.0033C177.415 63.0561 177.484 63.1089 177.554 63.1605ZM159.505 58.1115C159.977 60.3033 161.477 62.4112 163.536 63.7549C163.961 63.6471 164.385 63.5484 164.804 63.4612C166.452 63.1158 168.123 62.861 169.803 62.666C168.136 62.1966 166.499 61.6206 164.912 60.9401C163.037 60.1357 161.229 59.1879 159.505 58.1115ZM147.203 54.0517C148.094 55.4826 149.229 56.909 150.455 58.3915C152.169 60.4616 153.853 62.4456 155.577 64.2793C155.555 64.2094 155.531 64.1382 155.509 64.0694C155.032 63.4818 154.592 62.8656 154.191 62.2208C152.143 58.9332 151.306 55.268 151.759 51.8198C150.679 50.693 149.668 49.5042 148.732 48.2614C148.095 50.1617 147.584 52.0952 147.203 54.0517ZM202.253 59.4277C204.392 60.9413 206.214 62.791 207.326 64.9506C207.331 62.4847 206.789 60.0049 205.768 57.6927C205.054 58.1161 204.305 58.5109 203.522 58.8746C203.104 59.0686 202.681 59.2533 202.253 59.4277ZM164.715 64.4067C166.247 65.109 167.89 65.3236 169.436 65.008C170.65 64.7613 171.784 64.2289 172.85 63.3992C172.708 63.3717 172.565 63.3419 172.424 63.312C169.935 63.5209 167.458 63.8307 165.042 64.3367C164.933 64.3585 164.823 64.3826 164.715 64.4067ZM178.92 64.1543C179.425 64.5112 179.932 64.8657 180.443 65.218C180.67 64.8944 180.882 64.5559 181.077 64.2036C180.361 64.2071 179.64 64.1899 178.92 64.1543ZM156.445 63.6723C157.028 64.3758 157.663 65.0321 158.343 65.6346C159.625 65.008 160.988 64.4905 162.359 64.0808C160.209 62.4675 158.716 60.0795 158.39 57.6617C158.377 57.563 158.366 57.4643 158.354 57.3657C157.193 56.5842 156.073 55.7443 155.002 54.8481C155.052 57.827 155.532 60.799 156.445 63.6723ZM185.296 63.9592C185.178 64.5766 185.04 65.1939 184.878 65.8078C186.593 65.008 188.257 64.1233 189.857 63.156C188.366 63.5186 186.841 63.7859 185.296 63.9592ZM157.31 66.0522C157.336 66.0786 157.364 66.1039 157.39 66.1303C157.404 66.1222 157.42 66.1142 157.434 66.105C157.379 66.0545 157.325 66.004 157.27 65.9536C157.283 65.9868 157.296 66.019 157.31 66.0522ZM181.254 65.7745C181.739 66.105 182.225 66.4332 182.713 66.7591C183.037 66.6249 183.358 66.4883 183.68 66.3483C183.908 65.5955 184.094 64.8325 184.245 64.0636C183.571 64.1199 182.895 64.16 182.214 64.1818C181.932 64.7429 181.612 65.2754 181.254 65.7745ZM208.176 67.1688C208.184 67.1986 208.192 67.2273 208.199 67.2571C210.77 65.6196 212.85 63.2225 213.87 60.4295C215.107 57.0432 214.986 53.214 213.596 49.425C212.28 52.3557 209.857 55.0557 206.628 57.1591C207.839 59.8167 208.441 62.6935 208.34 65.537C208.32 66.0637 208.268 66.6122 208.176 67.1688ZM180.674 66.5181C180.23 67.0414 179.74 67.5222 179.205 67.9559C179.119 68.0248 179.031 68.0936 178.942 68.1613C179.858 67.8584 180.763 67.5325 181.658 67.1837C181.329 66.9622 181.001 66.7408 180.674 66.5181ZM199.903 60.5821C201.677 60.8736 203.479 61.6435 204.482 63.1548C205.761 65.0815 205.227 67.3765 203.914 69.131C204.968 68.8579 205.996 68.4631 206.973 67.9605C207.033 67.7138 207.086 67.466 207.131 67.2193C206.291 64.2358 203.953 61.7457 201.158 59.8523C200.727 60.0095 200.292 60.1587 199.855 60.2987C199.871 60.3928 199.887 60.488 199.903 60.5821ZM191.943 62.9506C191.949 63.6861 192.056 64.4044 192.329 65.1033C193.246 67.4545 195.86 68.8602 198.395 69.3547C199.131 66.7591 199.327 64.0372 198.988 61.3739C198.495 61.3314 198.017 61.3291 197.574 61.3567C195.991 61.4588 194.421 61.8753 192.894 62.3148C192.58 62.5294 192.263 62.7417 191.943 62.9506ZM199.406 69.5039C199.485 69.512 199.562 69.5188 199.64 69.5257C200.542 69.5969 201.449 69.5647 202.349 69.4408C203.963 67.8676 204.818 65.4475 203.598 63.6092C202.822 62.4411 201.445 61.8031 200.032 61.5208C200.338 64.1887 200.131 66.906 199.406 69.5039ZM159.119 66.284C161.076 67.8263 163.349 68.9497 165.772 69.5303C170.518 70.6698 175.4 69.8126 178.511 67.2938C179.004 66.8945 179.457 66.4493 179.867 65.965C179.333 65.5955 178.801 65.2249 178.273 64.852C177.896 64.5857 177.515 64.3103 177.132 64.0269C176.108 63.9317 175.086 63.7974 174.069 63.6253C172.723 64.8129 171.263 65.5611 169.667 65.8847C167.572 66.3116 165.339 65.9054 163.353 64.7418C161.915 65.1342 160.471 65.6472 159.119 66.284ZM146.951 55.4665C146.674 57.1775 146.496 58.9033 146.419 60.6383C146.328 62.7383 146.411 65.1331 147.734 66.9771C148.73 68.3633 150.381 69.3949 152.664 70.0627C153.636 68.7454 154.958 67.6151 156.476 66.6673C156.456 66.6191 156.435 66.5721 156.415 66.525C153.808 63.973 151.571 61.2695 149.627 58.9205C148.657 57.7466 147.741 56.606 146.951 55.4665ZM153.692 70.329C154.883 70.6009 156.222 70.788 157.706 70.8878C158.063 70.9119 158.422 70.9326 158.778 70.9498C158.07 69.9147 157.43 68.7821 156.869 67.5601L156.856 67.5302C155.613 68.3312 154.524 69.263 153.692 70.329ZM158.09 66.8027C159.758 68.3713 161.489 69.7793 163.341 70.9739C164.596 70.9291 165.849 70.8408 167.095 70.7099C166.563 70.6296 166.032 70.5252 165.501 70.399C162.821 69.7552 160.314 68.4907 158.185 66.7522C158.153 66.7683 158.121 66.7855 158.09 66.8027ZM160.014 70.9945C160.595 71.0083 161.179 71.0129 161.759 71.0094C160.568 70.1775 159.438 69.2767 158.364 68.3346C158.866 69.2893 159.417 70.1775 160.014 70.9945ZM199.14 70.3818C199.008 70.7845 198.864 71.1827 198.706 71.5774C199.523 71.2711 200.308 70.9062 201.027 70.4575C200.534 70.4724 200.039 70.4598 199.549 70.4219C199.413 70.4104 199.277 70.3978 199.14 70.3818ZM184.257 67.7792C186.308 69.1184 188.391 70.4185 190.492 71.6704C191.312 72.1592 192.166 72.6435 193.044 73.0784C193.325 73.0164 193.603 72.9545 193.877 72.8925C195.028 72.6366 196.245 72.3658 197.434 72.0066C197.695 71.4214 197.927 70.8258 198.128 70.2223C195.308 69.6577 192.4 68.0638 191.36 65.3947C191.128 64.798 191.001 64.1922 190.95 63.5817C188.909 64.8474 186.762 65.9822 184.535 66.976C184.448 67.2445 184.355 67.513 184.257 67.7792ZM194.408 73.7038C194.997 73.9505 195.595 74.1662 196.195 74.3406C196.447 73.9356 196.682 73.5236 196.901 73.1048C196.06 73.3308 195.22 73.5225 194.408 73.7038ZM197.206 74.5908C198.559 74.8651 199.92 74.8926 201.248 74.5346C203.948 73.8059 205.704 71.6475 206.602 69.1803C205.389 69.7128 204.124 70.0857 202.85 70.2865C202.702 70.4173 202.549 70.5424 202.394 70.6606C201.154 71.5981 199.706 72.2361 198.21 72.7192C197.91 73.3561 197.575 73.9815 197.206 74.5908ZM164.716 71.8093C166.541 72.8454 168.489 73.6762 170.607 74.2546C172.752 74.8409 174.969 75.1141 177.201 75.1714C179.091 73.9884 180.642 72.4002 181.675 70.7799C182.223 69.9193 182.678 69.0266 183.054 68.112C182.896 68.0087 182.741 67.9054 182.584 67.8022C176.963 70.057 170.887 71.4375 164.716 71.8093ZM183.904 68.6697C183.534 69.5441 183.092 70.399 182.568 71.2194C181.667 72.6332 180.393 74.0228 178.852 75.1749C183.249 75.0876 187.651 74.2511 191.628 73.3894C191.043 73.0749 190.472 72.7467 189.917 72.4151C187.892 71.208 185.883 69.9572 183.904 68.6697ZM160.723 71.9068C163.263 74.9775 166.474 76.8445 169.865 77.1015C171.941 77.2576 173.913 76.8135 175.671 76.0011C173.86 75.8748 172.062 75.5949 170.303 75.1141C167.679 74.3969 165.278 73.2666 163.078 71.8838C162.293 71.9079 161.51 71.916 160.723 71.9068ZM153.126 71.138C152.578 72.0227 152.2 72.99 152.045 74.0411C151.593 77.0878 153.243 80.4373 156.351 82.7805C158.885 84.6922 162.306 86.0084 166.809 86.8071C176.74 88.5673 187.515 87.0974 196.371 82.7759C198.992 81.4964 207.339 76.8651 207.463 69.7942C206.48 72.2992 204.614 74.5678 201.55 75.3952C199.926 75.8324 198.288 75.7716 196.683 75.4055C191.979 82.3835 182.729 86.8495 173.494 86.5523C173.212 86.5431 172.991 86.3343 173 86.0864C173.011 85.8386 173.251 85.6424 173.532 85.6527C182.307 85.9327 191.117 81.7294 195.673 75.137C194.732 74.849 193.804 74.4692 192.902 74.0377C188.202 75.0762 182.839 76.1652 177.5 76.0791C175.269 77.4068 172.616 78.2123 169.778 77.9977C165.884 77.7028 162.231 75.4916 159.452 71.8781C158.844 71.8574 158.236 71.8265 157.628 71.7852C155.946 71.6716 154.448 71.457 153.126 71.138ZM175.192 88.4331C172.304 88.4331 169.423 88.1875 166.606 87.6895C161.928 86.8599 158.355 85.4771 155.684 83.4633C152.317 80.9238 150.532 77.2691 151.03 73.9252C151.193 72.8202 151.576 71.8012 152.13 70.8683C149.719 70.1373 147.98 69.0059 146.868 67.4568C145.396 65.405 145.298 62.8415 145.396 60.6039C145.49 58.4558 145.737 56.3203 146.134 54.2089C145.004 52.3327 144.279 50.4256 144.27 48.344C144.261 46.5643 144.778 44.9233 145.646 43.3994C143.85 39.8663 141.764 33.7582 145.317 28.8056C147.263 26.094 150.723 24.1077 155.061 23.2115C155.838 23.0508 156.617 22.9269 157.4 22.8328C159.945 19.6106 164.211 17.6828 167.872 16.9014C173.171 15.77 178.857 16.2783 183.873 16.727C184.62 16.7947 185.373 16.875 186.095 17.0127C190.774 15.4727 196.663 16.3093 200.91 19.2882C205.135 22.2533 207.811 27.0132 208.319 32.4225C212.611 35.9648 214.979 40.6696 214.688 45.146C214.625 46.1202 214.436 47.0898 214.129 48.0411C215.99 52.3637 216.27 56.8057 214.846 60.7049C213.818 63.5197 211.736 66.0695 208.985 67.8837C208.789 68.0122 208.592 68.1373 208.392 68.2566C208.431 68.5309 208.458 68.8085 208.473 69.0908C208.768 74.4634 204.429 79.8727 196.867 83.5619C190.313 86.7612 182.731 88.4331 175.192 88.4331Z" fill="#5C49D8"/>
<path d="M278.194 103.484C274.523 103.484 270.845 104.2 267.573 105.608C269.694 104.832 271.928 104.347 274.22 104.186C274.968 104.133 275.72 104.116 276.474 104.135C277.024 104.075 277.58 104.03 278.14 104.001C281.231 103.844 284.272 104.185 287.092 104.982C284.29 103.979 281.244 103.484 278.194 103.484ZM274.041 105.459C270.409 106.227 267.032 107.759 264.389 110.027C263.917 110.432 263.465 110.856 263.031 111.302C264.69 110.238 266.531 109.335 268.521 108.618C274.256 106.551 280.635 106.359 286.023 108.09C286.573 108.266 287.115 108.463 287.647 108.677C283.419 106.321 278.656 105.166 274.041 105.459ZM258.038 113.794C257.079 115.365 256.341 117.043 255.845 118.771C256.83 116.982 258.133 115.335 259.706 113.871C260.842 112.17 262.163 110.679 263.673 109.383C264.602 108.587 265.619 107.869 266.712 107.237C263.382 108.686 260.4 110.944 258.038 113.794ZM299.898 119.875C300.3 120.669 300.65 121.473 300.945 122.285C300.573 118.308 298.884 114.393 296.162 111.198C295.138 110.189 293.999 109.274 292.754 108.482C289.734 106.56 286.157 105.417 282.477 105.029C283.907 105.423 285.315 105.943 286.68 106.585C290.387 108.331 293.719 110.933 296.315 114.111C297.822 115.956 299.02 117.895 299.898 119.875ZM255.113 123.528C255.098 124.264 255.126 124.999 255.202 125.731C255.739 122.843 256.5 120.258 257.497 117.956C257.181 118.434 256.888 118.927 256.622 119.433C255.928 120.747 255.429 122.123 255.113 123.528ZM254.162 133.824C254.375 134.052 254.59 134.278 254.805 134.501C254.75 134.152 254.706 133.803 254.672 133.455C253.609 130.197 253.37 126.734 254.096 123.427C254.1 123.27 254.106 123.112 254.114 122.954C253.855 124.264 253.686 125.611 253.614 126.986C253.487 129.398 253.676 131.696 254.162 133.824ZM255.928 138.641C256.251 139.093 256.596 139.531 256.965 139.955C256.127 138.784 255.559 137.522 255.188 136.231C255.027 136.077 254.865 135.922 254.706 135.765C255.041 136.774 255.449 137.734 255.928 138.641ZM255.785 128.711C255.887 129.061 256 129.41 256.127 129.756C259.105 137.904 268.687 143.941 278.437 143.805C288.176 143.666 297.539 137.357 300.215 129.128C300.245 129.036 300.274 128.946 300.301 128.855C300.54 124.271 298.854 119.436 295.455 115.232C292.872 112.414 289.524 110.172 285.672 108.935C276.992 106.147 266.787 108.628 260.543 114.395C258.351 117.7 256.865 121.831 256.038 126.879C255.934 127.509 255.85 128.119 255.785 128.711ZM263.013 144.561C263.084 144.595 263.153 144.631 263.224 144.665C263.203 144.651 263.182 144.638 263.16 144.623C263.111 144.602 263.062 144.581 263.013 144.561ZM257.191 136.755C262.982 141.781 269.949 144.766 276.875 145.016C286.076 145.347 295.171 140.575 299.367 133.446C299.408 133.337 299.447 133.228 299.484 133.118C297.859 135.831 295.506 138.28 292.613 140.23C288.436 143.045 283.407 144.634 278.453 144.704C273.502 144.779 268.414 143.331 264.135 140.636C260.257 138.193 257.272 134.87 255.62 131.182C255.606 131.946 255.632 132.676 255.696 133.369C256.086 134.533 256.587 135.668 257.191 136.755ZM263.687 143.846C267.249 145.331 271.389 145.842 274.679 146.093C277.973 146.343 281.749 146.471 285.405 145.924C288.231 145.025 290.797 143.749 292.98 142.172C294.272 141.106 295.434 139.916 296.438 138.627C291.466 143.321 284.187 146.183 276.832 145.916C270.59 145.69 264.327 143.333 258.873 139.316C260.198 141.041 261.815 142.584 263.687 143.846ZM271.724 147.161C274.177 147.475 276.744 147.498 279.345 147.206C277.696 147.192 276.095 147.104 274.591 146.989C272.65 146.842 270.425 146.604 268.181 146.139C269.326 146.565 270.513 146.906 271.724 147.161ZM261.966 145.097C266.149 147.716 271.756 149.021 277.513 148.614C275.621 148.64 273.729 148.473 271.886 148.116C268.252 147.704 264.878 146.677 261.966 145.097ZM275.446 149.587C268.508 149.587 261.99 147.216 257.99 143.134C256.822 141.943 255.832 140.579 255.03 139.073C255.006 139.041 254.984 139.008 254.96 138.976C254.733 139.057 254.465 138.986 254.331 138.796C252.891 136.753 251.921 134.498 251.419 132.128C251.115 131.748 250.817 131.36 250.525 130.967C245.309 123.947 242.335 115.807 239.458 107.934C239.086 106.914 238.714 105.895 238.336 104.879C235.268 96.6044 231.38 87.1834 224.043 80.1194C214.193 70.6365 202.112 61.5127 187.172 65.7459C186.903 65.8216 186.615 65.6919 186.529 65.4555C186.441 65.2191 186.59 64.9656 186.859 64.8898C194.231 62.8002 201.423 63.6115 208.845 67.3718C215.064 70.5217 220.4 75.277 224.799 79.5124C232.274 86.7095 236.209 96.2361 239.311 104.6C239.688 105.617 240.061 106.637 240.434 107.658C243.237 115.335 246.136 123.267 251.107 130.101C250.69 125.835 251.721 121.289 254.204 116.979C255.252 115.16 256.491 113.498 257.889 112.019C258.827 110.788 259.88 109.653 261.036 108.633C262.151 107.608 263.387 106.685 264.732 105.891C268.908 103.425 274.153 102.188 279.499 102.41C284.837 102.631 289.933 104.289 293.843 107.08C297.726 109.85 300.467 113.685 301.854 117.873C302.027 118.289 302.186 118.71 302.333 119.137C303.916 123.759 303.857 128.702 302.169 133.058C301.736 134.176 301.201 135.263 300.57 136.31C299.232 139.314 297.129 141.851 294.478 143.613C293.385 144.339 292.223 144.929 291.013 145.404C287.104 147.649 282.596 149.077 278.108 149.471C277.217 149.549 276.327 149.587 275.446 149.587Z" fill="#5C49D8"/>
</svg>
