<svg width="132" height="40" viewBox="0 0 132 40" fill="none" xmlns="http://www.w3.org/2000/svg">
<rect width="40" height="40" rx="20" fill="url(#paint0_linear_29_1134)"/>
<rect x="8.80005" y="6.39844" width="22.4" height="6" fill="white"/>
<rect x="3.6001" y="17.2031" width="22.4" height="6" fill="white"/>
<rect x="8.80005" y="28" width="22.4" height="6" fill="white"/>
<path d="M48.8849 17V6.81818H55.6264V8.59304H51.0376V11.0192H55.179V12.794H51.0376V17H48.8849ZM59.9542 17.1491C59.1687 17.1491 58.4925 16.9901 57.9258 16.6719C57.3623 16.3504 56.9281 15.8963 56.6232 15.3097C56.3183 14.7197 56.1658 14.022 56.1658 13.2166C56.1658 12.4311 56.3183 11.7417 56.6232 11.1484C56.9281 10.5552 57.3574 10.0928 57.9109 9.76136C58.4677 9.42992 59.1206 9.2642 59.8697 9.2642C60.3735 9.2642 60.8424 9.34541 61.2766 9.50781C61.7141 9.6669 62.0953 9.9072 62.4201 10.2287C62.7482 10.5502 63.0034 10.9545 63.1857 11.4418C63.368 11.9257 63.4592 12.4924 63.4592 13.142V13.7237H57.011V12.4112H61.4656C61.4656 12.1063 61.3993 11.8362 61.2667 11.6009C61.1341 11.3655 60.9502 11.1816 60.7148 11.049C60.4828 10.9131 60.2127 10.8452 59.9045 10.8452C59.583 10.8452 59.2979 10.9197 59.0494 11.0689C58.8041 11.2147 58.6119 11.4119 58.4727 11.6605C58.3335 11.9058 58.2622 12.1792 58.2589 12.4808V13.7287C58.2589 14.1065 58.3285 14.433 58.4677 14.7081C58.6102 14.9832 58.8107 15.1953 59.0692 15.3445C59.3278 15.4936 59.6344 15.5682 59.989 15.5682C60.2243 15.5682 60.4397 15.535 60.6353 15.4688C60.8308 15.4025 60.9982 15.303 61.1374 15.1705C61.2766 15.0379 61.3827 14.8755 61.4556 14.6832L63.4144 14.8125C63.315 15.2831 63.1112 15.6941 62.8029 16.0455C62.498 16.3935 62.1036 16.6652 61.6197 16.8608C61.1391 17.053 60.5839 17.1491 59.9542 17.1491ZM68.3214 17.1491C67.5359 17.1491 66.8597 16.9901 66.293 16.6719C65.7295 16.3504 65.2953 15.8963 64.9904 15.3097C64.6855 14.7197 64.533 14.022 64.533 13.2166C64.533 12.4311 64.6855 11.7417 64.9904 11.1484C65.2953 10.5552 65.7246 10.0928 66.2781 9.76136C66.8349 9.42992 67.4878 9.2642 68.2369 9.2642C68.7406 9.2642 69.2096 9.34541 69.6438 9.50781C70.0813 9.6669 70.4625 9.9072 70.7873 10.2287C71.1154 10.5502 71.3706 10.9545 71.5529 11.4418C71.7352 11.9257 71.8263 12.4924 71.8263 13.142V13.7237H65.3782V12.4112H69.8327C69.8327 12.1063 69.7665 11.8362 69.6339 11.6009C69.5013 11.3655 69.3174 11.1816 69.082 11.049C68.85 10.9131 68.5799 10.8452 68.2717 10.8452C67.9502 10.8452 67.6651 10.9197 67.4165 11.0689C67.1713 11.2147 66.979 11.4119 66.8398 11.6605C66.7006 11.9058 66.6294 12.1792 66.6261 12.4808V13.7287C66.6261 14.1065 66.6957 14.433 66.8349 14.7081C66.9774 14.9832 67.1779 15.1953 67.4364 15.3445C67.695 15.4936 68.0015 15.5682 68.3562 15.5682C68.5915 15.5682 68.8069 15.535 69.0025 15.4688C69.198 15.4025 69.3654 15.303 69.5046 15.1705C69.6438 15.0379 69.7499 14.8755 69.8228 14.6832L71.7816 14.8125C71.6822 15.2831 71.4783 15.6941 71.1701 16.0455C70.8652 16.3935 70.4708 16.6652 69.9869 16.8608C69.5063 17.053 68.9511 17.1491 68.3214 17.1491ZM76.0224 17.1243C75.4424 17.1243 74.917 16.9751 74.4464 16.6768C73.979 16.3752 73.6078 15.9328 73.3327 15.3494C73.061 14.7628 72.9251 14.0436 72.9251 13.1918C72.9251 12.3168 73.0659 11.5893 73.3477 11.0092C73.6294 10.4259 74.0039 9.99006 74.4712 9.7017C74.9419 9.41004 75.4573 9.2642 76.0174 9.2642C76.445 9.2642 76.8013 9.33712 77.0863 9.48295C77.3746 9.62547 77.6067 9.80445 77.7823 10.0199C77.9613 10.232 78.0972 10.4408 78.19 10.6463H78.2546V6.81818H80.3675V17H78.2795V15.777H78.19C78.0906 15.9891 77.9497 16.1996 77.7674 16.4084C77.5884 16.6139 77.3548 16.7846 77.0664 16.9205C76.7814 17.0563 76.4334 17.1243 76.0224 17.1243ZM76.6935 15.4389C77.0349 15.4389 77.3233 15.3461 77.5586 15.1605C77.7972 14.9716 77.9795 14.7081 78.1055 14.37C78.2347 14.032 78.2994 13.6359 78.2994 13.1818C78.2994 12.7277 78.2364 12.3333 78.1104 11.9986C77.9845 11.6638 77.8022 11.4053 77.5636 11.223C77.3249 11.0407 77.0349 10.9496 76.6935 10.9496C76.3455 10.9496 76.0522 11.044 75.8136 11.233C75.5749 11.4219 75.3943 11.6837 75.2717 12.0185C75.149 12.3532 75.0877 12.741 75.0877 13.1818C75.0877 13.6259 75.149 14.0187 75.2717 14.3601C75.3976 14.6982 75.5782 14.9633 75.8136 15.1555C76.0522 15.3445 76.3455 15.4389 76.6935 15.4389ZM82.1486 17V6.81818H84.2665V10.6463H84.3311C84.4239 10.4408 84.5582 10.232 84.7338 10.0199C84.9128 9.80445 85.1448 9.62547 85.4299 9.48295C85.7182 9.33712 86.0762 9.2642 86.5037 9.2642C87.0605 9.2642 87.5743 9.41004 88.0449 9.7017C88.5156 9.99006 88.8917 10.4259 89.1735 11.0092C89.4552 11.5893 89.5961 12.3168 89.5961 13.1918C89.5961 14.0436 89.4585 14.7628 89.1834 15.3494C88.9116 15.9328 88.5404 16.3752 88.0698 16.6768C87.6025 16.9751 87.0788 17.1243 86.4988 17.1243C86.0878 17.1243 85.7381 17.0563 85.4498 16.9205C85.1647 16.7846 84.931 16.6139 84.7488 16.4084C84.5665 16.1996 84.4273 15.9891 84.3311 15.777H84.2367V17H82.1486ZM84.2218 13.1818C84.2218 13.6359 84.2847 14.032 84.4107 14.37C84.5366 14.7081 84.7189 14.9716 84.9576 15.1605C85.1962 15.3461 85.4862 15.4389 85.8276 15.4389C86.1723 15.4389 86.464 15.3445 86.7026 15.1555C86.9412 14.9633 87.1219 14.6982 87.2445 14.3601C87.3704 14.0187 87.4334 13.6259 87.4334 13.1818C87.4334 12.741 87.3721 12.3532 87.2495 12.0185C87.1268 11.6837 86.9462 11.4219 86.7076 11.233C86.4689 11.044 86.1756 10.9496 85.8276 10.9496C85.4829 10.9496 85.1912 11.0407 84.9526 11.223C84.7173 11.4053 84.5366 11.6638 84.4107 11.9986C84.2847 12.3333 84.2218 12.7277 84.2218 13.1818ZM93.1868 17.1442C92.6996 17.1442 92.2654 17.0597 91.8842 16.8906C91.5031 16.7183 91.2015 16.4647 90.9794 16.13C90.7607 15.7919 90.6513 15.371 90.6513 14.8672C90.6513 14.4429 90.7292 14.0866 90.8849 13.7983C91.0407 13.5099 91.2528 13.2779 91.5213 13.1023C91.7898 12.9266 92.0947 12.794 92.4361 12.7045C92.7808 12.6151 93.142 12.5521 93.5199 12.5156C93.964 12.4692 94.322 12.4261 94.5938 12.3864C94.8655 12.3433 95.0627 12.2803 95.1854 12.1974C95.308 12.1146 95.3693 11.992 95.3693 11.8295V11.7997C95.3693 11.4848 95.2699 11.2412 95.071 11.0689C94.8755 10.8965 94.5971 10.8104 94.2358 10.8104C93.8546 10.8104 93.5514 10.8949 93.326 11.0639C93.1006 11.2296 92.9515 11.4384 92.8786 11.6903L90.9197 11.5312C91.0192 11.0672 91.2147 10.6662 91.5064 10.3281C91.7981 9.98674 92.1742 9.7249 92.6349 9.54261C93.099 9.35701 93.6359 9.2642 94.2457 9.2642C94.67 9.2642 95.076 9.31392 95.4638 9.41335C95.8549 9.51278 96.2012 9.6669 96.5028 9.87571C96.8078 10.0845 97.0481 10.353 97.2237 10.6811C97.3994 11.0059 97.4872 11.3954 97.4872 11.8494V17H95.4787V15.9411H95.419C95.2964 16.1797 95.1323 16.3902 94.9268 16.5724C94.7214 16.7514 94.4744 16.8923 94.1861 16.995C93.8977 17.0945 93.5646 17.1442 93.1868 17.1442ZM93.7933 15.6825C94.1049 15.6825 94.38 15.6212 94.6186 15.4986C94.8572 15.3726 95.0445 15.2036 95.1804 14.9915C95.3163 14.7794 95.3842 14.5391 95.3842 14.2706V13.4602C95.3179 13.5033 95.2268 13.5431 95.1108 13.5795C94.9981 13.6127 94.8705 13.6442 94.728 13.674C94.5855 13.7005 94.4429 13.7254 94.3004 13.7486C94.1579 13.7685 94.0286 13.7867 93.9126 13.8033C93.6641 13.8397 93.447 13.8977 93.2614 13.9773C93.0758 14.0568 92.9316 14.1645 92.8288 14.3004C92.7261 14.433 92.6747 14.5987 92.6747 14.7976C92.6747 15.0859 92.7791 15.3063 92.9879 15.4588C93.2 15.608 93.4685 15.6825 93.7933 15.6825ZM102.581 17.1491C101.798 17.1491 101.126 16.9834 100.562 16.652C100.002 16.3172 99.5711 15.8532 99.2695 15.2599C98.9712 14.6667 98.8221 13.9839 98.8221 13.2116C98.8221 12.4295 98.9729 11.7434 99.2745 11.1534C99.5794 10.5601 100.012 10.0978 100.572 9.76633C101.132 9.43158 101.798 9.2642 102.571 9.2642C103.237 9.2642 103.82 9.38518 104.321 9.62713C104.821 9.86908 105.217 10.2088 105.509 10.6463C105.801 11.0838 105.961 11.5975 105.991 12.1875H103.993C103.936 11.8063 103.787 11.4998 103.545 11.2678C103.306 11.0324 102.993 10.9148 102.605 10.9148C102.277 10.9148 101.991 11.0043 101.745 11.1832C101.503 11.3589 101.315 11.6158 101.179 11.9538C101.043 12.2919 100.975 12.7012 100.975 13.1818C100.975 13.669 101.041 14.0833 101.174 14.4247C101.31 14.7661 101.5 15.0263 101.745 15.2053C101.991 15.3842 102.277 15.4737 102.605 15.4737C102.847 15.4737 103.065 15.424 103.257 15.3246C103.452 15.2251 103.613 15.081 103.739 14.892C103.868 14.6998 103.953 14.4695 103.993 14.201H105.991C105.958 14.7843 105.799 15.2981 105.514 15.7422C105.232 16.183 104.843 16.5277 104.346 16.7763C103.848 17.0249 103.26 17.1491 102.581 17.1491ZM109.266 14.8026L109.271 12.2621H109.579L112.025 9.36364H114.456L111.17 13.2017H110.668L109.266 14.8026ZM107.347 17V6.81818H109.465V17H107.347ZM112.12 17L109.873 13.674L111.285 12.1776L114.601 17H112.12ZM48.8849 33V22.8182H52.902C53.6709 22.8182 54.3272 22.9557 54.8707 23.2308C55.4176 23.5026 55.8336 23.8887 56.1186 24.3892C56.407 24.8864 56.5511 25.4714 56.5511 26.1442C56.5511 26.8203 56.4053 27.402 56.1136 27.8892C55.822 28.3731 55.3994 28.7443 54.8459 29.0028C54.2957 29.2614 53.6295 29.3906 52.8473 29.3906H50.1577V27.6605H52.4993C52.9103 27.6605 53.2517 27.6042 53.5234 27.4915C53.7952 27.3788 53.9974 27.2098 54.13 26.9844C54.2659 26.759 54.3338 26.4789 54.3338 26.1442C54.3338 25.8061 54.2659 25.5211 54.13 25.2891C53.9974 25.0571 53.7936 24.8814 53.5185 24.7621C53.2467 24.6394 52.9036 24.5781 52.4893 24.5781H51.0376V33H48.8849ZM54.3835 28.3665L56.9141 33H54.5376L52.0618 28.3665H54.3835ZM61.3897 33.1491C60.6042 33.1491 59.9281 32.9901 59.3613 32.6719C58.7979 32.3504 58.3637 31.8963 58.0588 31.3097C57.7538 30.7197 57.6014 30.022 57.6014 29.2166C57.6014 28.4311 57.7538 27.7417 58.0588 27.1484C58.3637 26.5552 58.7929 26.0928 59.3464 25.7614C59.9032 25.4299 60.5562 25.2642 61.3052 25.2642C61.809 25.2642 62.278 25.3454 62.7122 25.5078C63.1497 25.6669 63.5308 25.9072 63.8556 26.2287C64.1838 26.5502 64.439 26.9545 64.6213 27.4418C64.8036 27.9257 64.8947 28.4924 64.8947 29.142V29.7237H58.4466V28.4112H62.9011C62.9011 28.1063 62.8348 27.8362 62.7022 27.6009C62.5697 27.3655 62.3857 27.1816 62.1504 27.049C61.9184 26.9131 61.6483 26.8452 61.34 26.8452C61.0185 26.8452 60.7335 26.9197 60.4849 27.0689C60.2396 27.2147 60.0474 27.4119 59.9082 27.6605C59.769 27.9058 59.6977 28.1792 59.6944 28.4808V29.7287C59.6944 30.1065 59.764 30.433 59.9032 30.7081C60.0458 30.9832 60.2463 31.1953 60.5048 31.3445C60.7633 31.4936 61.0699 31.5682 61.4245 31.5682C61.6599 31.5682 61.8753 31.535 62.0708 31.4688C62.2664 31.4025 62.4338 31.303 62.573 31.1705C62.7122 31.0379 62.8182 30.8755 62.8912 30.6832L64.85 30.8125C64.7505 31.2831 64.5467 31.6941 64.2385 32.0455C63.9335 32.3935 63.5391 32.6652 63.0552 32.8608C62.5746 33.053 62.0195 33.1491 61.3897 33.1491ZM73.1911 25.3636L70.5213 33H68.1349L65.4652 25.3636H67.7024L69.2884 30.8274H69.3679L70.9489 25.3636H73.1911ZM77.479 33.1491C76.7068 33.1491 76.0389 32.9851 75.4755 32.657C74.9154 32.3255 74.4828 31.8648 74.1779 31.2749C73.873 30.6816 73.7205 29.9938 73.7205 29.2116C73.7205 28.4228 73.873 27.7334 74.1779 27.1435C74.4828 26.5502 74.9154 26.0895 75.4755 25.7614C76.0389 25.4299 76.7068 25.2642 77.479 25.2642C78.2513 25.2642 78.9175 25.4299 79.4776 25.7614C80.0411 26.0895 80.4753 26.5502 80.7802 27.1435C81.0851 27.7334 81.2376 28.4228 81.2376 29.2116C81.2376 29.9938 81.0851 30.6816 80.7802 31.2749C80.4753 31.8648 80.0411 32.3255 79.4776 32.657C78.9175 32.9851 78.2513 33.1491 77.479 33.1491ZM77.489 31.5085C77.8403 31.5085 78.1336 31.4091 78.369 31.2102C78.6043 31.008 78.7816 30.733 78.9009 30.3849C79.0236 30.0369 79.0849 29.6409 79.0849 29.1967C79.0849 28.7526 79.0236 28.3565 78.9009 28.0085C78.7816 27.6605 78.6043 27.3854 78.369 27.1832C78.1336 26.9811 77.8403 26.88 77.489 26.88C77.1344 26.88 76.8361 26.9811 76.5941 27.1832C76.3555 27.3854 76.1748 27.6605 76.0522 28.0085C75.9329 28.3565 75.8732 28.7526 75.8732 29.1967C75.8732 29.6409 75.9329 30.0369 76.0522 30.3849C76.1748 30.733 76.3555 31.008 76.5941 31.2102C76.8361 31.4091 77.1344 31.5085 77.489 31.5085ZM84.7326 22.8182V33H82.6147V22.8182H84.7326ZM91.3262 29.7486V25.3636H93.4441V33H91.4107V31.6129H91.3311C91.1588 32.0604 90.8721 32.42 90.4711 32.6918C90.0733 32.9635 89.5878 33.0994 89.0144 33.0994C88.504 33.0994 88.0549 32.9834 87.6671 32.7514C87.2793 32.5194 86.976 32.1896 86.7573 31.7621C86.5418 31.3345 86.4325 30.8224 86.4292 30.2259V25.3636H88.5471V29.848C88.5504 30.2988 88.6713 30.6551 88.91 30.9169C89.1486 31.1787 89.4685 31.3097 89.8695 31.3097C90.1247 31.3097 90.3633 31.2517 90.5854 31.1357C90.8075 31.0163 90.9864 30.8407 91.1223 30.6087C91.2615 30.3767 91.3295 30.09 91.3262 29.7486ZM99.1999 25.3636V26.9545H94.6012V25.3636H99.1999ZM95.6452 23.5341H97.7631V30.6534C97.7631 30.849 97.793 31.0014 97.8526 31.1108C97.9123 31.2169 97.9951 31.2914 98.1012 31.3345C98.2106 31.3776 98.3365 31.3991 98.479 31.3991C98.5785 31.3991 98.6779 31.3909 98.7773 31.3743C98.8768 31.3544 98.953 31.3395 99.006 31.3295L99.3391 32.9055C99.2331 32.9387 99.0839 32.9768 98.8917 33.0199C98.6995 33.0663 98.4658 33.0945 98.1907 33.1044C97.6803 33.1243 97.2328 33.0563 96.8484 32.9006C96.4672 32.7448 96.1706 32.5028 95.9585 32.1747C95.7463 31.8466 95.6419 31.4323 95.6452 30.9318V23.5341ZM100.58 33V25.3636H102.697V33H100.58ZM101.643 24.3793C101.329 24.3793 101.058 24.2749 100.833 24.0661C100.611 23.8539 100.5 23.6004 100.5 23.3054C100.5 23.0137 100.611 22.7635 100.833 22.5547C101.058 22.3426 101.329 22.2365 101.643 22.2365C101.958 22.2365 102.227 22.3426 102.449 22.5547C102.674 22.7635 102.787 23.0137 102.787 23.3054C102.787 23.6004 102.674 23.8539 102.449 24.0661C102.227 24.2749 101.958 24.3793 101.643 24.3793ZM107.844 33.1491C107.072 33.1491 106.404 32.9851 105.841 32.657C105.281 32.3255 104.848 31.8648 104.543 31.2749C104.238 30.6816 104.086 29.9938 104.086 29.2116C104.086 28.4228 104.238 27.7334 104.543 27.1435C104.848 26.5502 105.281 26.0895 105.841 25.7614C106.404 25.4299 107.072 25.2642 107.844 25.2642C108.617 25.2642 109.283 25.4299 109.843 25.7614C110.406 26.0895 110.84 26.5502 111.145 27.1435C111.45 27.7334 111.603 28.4228 111.603 29.2116C111.603 29.9938 111.45 30.6816 111.145 31.2749C110.84 31.8648 110.406 32.3255 109.843 32.657C109.283 32.9851 108.617 33.1491 107.844 33.1491ZM107.854 31.5085C108.206 31.5085 108.499 31.4091 108.734 31.2102C108.97 31.008 109.147 30.733 109.266 30.3849C109.389 30.0369 109.45 29.6409 109.45 29.1967C109.45 28.7526 109.389 28.3565 109.266 28.0085C109.147 27.6605 108.97 27.3854 108.734 27.1832C108.499 26.9811 108.206 26.88 107.854 26.88C107.5 26.88 107.201 26.9811 106.959 27.1832C106.721 27.3854 106.54 27.6605 106.417 28.0085C106.298 28.3565 106.238 28.7526 106.238 29.1967C106.238 29.6409 106.298 30.0369 106.417 30.3849C106.54 30.733 106.721 31.008 106.959 31.2102C107.201 31.4091 107.5 31.5085 107.854 31.5085ZM115.098 28.5852V33H112.98V25.3636H114.998V26.7109H115.088C115.257 26.2668 115.54 25.9155 115.938 25.657C116.336 25.3951 116.818 25.2642 117.385 25.2642C117.915 25.2642 118.377 25.3802 118.772 25.6122C119.166 25.8442 119.473 26.1757 119.692 26.6065C119.91 27.0341 120.02 27.5445 120.02 28.1378V33H117.902V28.5156C117.905 28.0483 117.786 27.6837 117.544 27.4219C117.302 27.1567 116.969 27.0241 116.545 27.0241C116.26 27.0241 116.008 27.0855 115.789 27.2081C115.573 27.3307 115.404 27.5097 115.282 27.745C115.162 27.977 115.101 28.2571 115.098 28.5852Z" fill="#251055"/>
<defs>
<linearGradient id="paint0_linear_29_1134" x1="20" y1="0" x2="20" y2="40" gradientUnits="userSpaceOnUse">
<stop offset="0.09375" stop-color="#455EB5"/>
<stop offset="0.484375" stop-color="#5643CC"/>
<stop offset="0.692708" stop-color="#673FD7"/>
</linearGradient>
</defs>
</svg>
