<svg width="132" height="40" viewBox="0 0 132 40" fill="none" xmlns="http://www.w3.org/2000/svg">
<rect width="40" height="40" rx="20" fill="url(#paint0_linear_29_1134)"/>
<rect x="8.80005" y="6.39844" width="22.4" height="6" fill="white"/>
<rect x="3.6001" y="17.2031" width="22.4" height="6" fill="white"/>
<rect x="8.80005" y="28" width="22.4" height="6" fill="white"/>
<path d="M48.8849 17V6.81818H55.6264V8.59304H51.0376V11.0192H55.179V12.794H51.0376V17H48.8849ZM59.9542 17.1491C59.1687 17.1491 58.4925 16.9901 57.9258 16.6719C57.3623 16.3504 56.9281 15.8963 56.6232 15.3097C56.3183 14.7197 56.1658 14.022 56.1658 13.2166C56.1658 12.4311 56.3183 11.7417 56.6232 11.1484C56.9281 10.5552 57.3574 10.0928 57.9109 9.76136C58.4677 9.42992 59.1206 9.2642 59.8697 9.2642C60.3735 9.2642 60.8424 9.34541 61.2766 9.50781C61.7141 9.6669 62.0953 9.9072 62.4201 10.2287C62.7482 10.5502 63.0034 10.9545 63.1857 11.4418C63.368 11.9257 63.4592 12.4924 63.4592 13.142V13.7237H57.011V12.4112H61.4656C61.4656 12.1063 61.3993 11.8362 61.2667 11.6009C61.1341 11.3655 60.9502 11.1816 60.7148 11.049C60.4828 10.9131 60.2127 10.8452 59.9045 10.8452C59.583 10.8452 59.2979 10.9197 59.0494 11.0689C58.8041 11.2147 58.6119 11.4119 58.4727 11.6605C58.3335 11.9058 58.2622 12.1792 58.2589 12.4808V13.7287C58.2589 14.1065 58.3285 14.433 58.4677 14.7081C58.6102 14.9832 58.8107 15.1953 59.0692 15.3445C59.3278 15.4936 59.6344 15.5682 59.989 15.5682C60.2243 15.5682 60.4397 15.535 60.6353 15.4688C60.8308 15.4025 60.9982 15.303 61.1374 15.1705C61.2766 15.0379 61.3827 14.8755 61.4556 14.6832L63.4144 14.8125C63.315 15.2831 63.1112 15.6941 62.8029 16.0455C62.498 16.3935 62.1036 16.6652 61.6197 16.8608C61.1391 17.053 60.5839 17.1491 59.9542 17.1491ZM68.3214 17.1491C67.5359 17.1491 66.8597 16.9901 66.293 16.6719C65.7295 16.3504 65.2953 15.8963 64.9904 15.3097C64.6855 14.7197 64.533 14.022 64.533 13.2166C64.533 12.4311 64.6855 11.7417 64.9904 11.1484C65.2953 10.5552 65.7246 10.0928 66.2781 9.76136C66.8349 9.42992 67.4878 9.2642 68.2369 9.2642C68.7406 9.2642 69.2096 9.34541 69.6438 9.50781C70.0813 9.6669 70.4625 9.9072 70.7873 10.2287C71.1154 10.5502 71.3706 10.9545 71.5529 11.4418C71.7352 11.9257 71.8263 12.4924 71.8263 13.142V13.7237H65.3782V12.4112H69.8327C69.8327 12.1063 69.7665 11.8362 69.6339 11.6009C69.5013 11.3655 69.3174 11.1816 69.082 11.049C68.85 10.9131 68.5799 10.8452 68.2717 10.8452C67.9502 10.8452 67.6651 10.9197 67.4165 11.0689C67.1713 11.2147 66.979 11.4119 66.8398 11.6605C66.7006 11.9058 66.6294 12.1792 66.6261 12.4808V13.7287C66.6261 14.1065 66.6957 14.433 66.8349 14.7081C66.9774 14.9832 67.1779 15.1953 67.4364 15.3445C67.695 15.4936 68.0015 15.5682 68.3562 15.5682C68.5915 15.5682 68.8069 15.535 69.0025 15.4688C69.198 15.4025 69.3654 15.303 69.5046 15.1705C69.6438 15.0379 69.7499 14.8755 69.8228 14.6832L71.7816 14.8125C71.6822 15.2831 71.4783 15.6941 71.1701 16.0455C70.8652 16.3935 70.4708 16.6652 69.9869 16.8608C69.5063 17.053 68.9511 17.1491 68.3214 17.1491ZM76.0224 17.1243C75.4424 17.1243 74.917 16.9751 74.4464 16.6768C73.979 16.3752 73.6078 15.9328 73.3327 15.3494C73.061 14.7628 72.9251 14.0436 72.9251 13.1918C72.9251 12.3168 73.0659 11.5893 73.3477 11.0092C73.6294 10.4259 74.0039 9.99006 74.4712 9.7017C74.9419 9.41004 75.4573 9.2642 76.0174 9.2642C76.445 9.2642 76.8013 9.33712 77.0863 9.48295C77.3746 9.62547 77.6067 9.80445 77.7823 10.0199C77.9613 10.232 78.0972 10.4408 78.19 10.6463H78.2546V6.81818H80.3675V17H78.2795V15.777H78.19C78.0906 15.9891 77.9497 16.1996 77.7674 16.4084C77.5884 16.6139 77.3548 16.7846 77.0664 16.9205C76.7814 17.0563 76.4334 17.1243 76.0224 17.1243ZM76.6935 15.4389C77.0349 15.4389 77.3233 15.3461 77.5586 15.1605C77.7972 14.9716 77.9795 14.7081 78.1055 14.37C78.2347 14.032 78.2994 13.6359 78.2994 13.1818C78.2994 12.7277 78.2364 12.3333 78.1104 11.9986C77.9845 11.6638 77.8022 11.4053 77.5636 11.223C77.3249 11.0407 77.0349 10.9496 76.6935 10.9496C76.3455 10.9496 76.0522 11.044 75.8136 11.233C75.5749 11.4219 75.3943 11.6837 75.2717 12.0185C75.149 12.3532 75.0877 12.741 75.0877 13.1818C75.0877 13.6259 75.149 14.0187 75.2717 14.3601C75.3976 14.6982 75.5782 14.9633 75.8136 15.1555C76.0522 15.3445 76.3455 15.4389 76.6935 15.4389ZM82.1486 17V6.81818H84.2665V10.6463H84.3311C84.4239 10.4408 84.5582 10.232 84.7338 10.0199C84.9128 9.80445 85.1448 9.62547 85.4299 9.48295C85.7182 9.33712 86.0762 9.2642 86.5037 9.2642C87.0605 9.2642 87.5743 9.41004 88.0449 9.7017C88.5156 9.99006 88.8917 10.4259 89.1735 11.0092C89.4552 11.5893 89.5961 12.3168 89.5961 13.1918C89.5961 14.0436 89.4585 14.7628 89.1834 15.3494C88.9116 15.9328 88.5404 16.3752 88.0698 16.6768C87.6025 16.9751 87.0788 17.1243 86.4988 17.1243C86.0878 17.1243 85.7381 17.0563 85.4498 16.9205C85.1647 16.7846 84.931 16.6139 84.7488 16.4084C84.5665 16.1996 84.4273 15.9891 84.3311 15.777H84.2367V17H82.1486ZM84.2218 13.1818C84.2218 13.6359 84.2847 14.032 84.4107 14.37C84.5366 14.7081 84.7189 14.9716 84.9576 15.1605C85.1962 15.3461 85.4862 15.4389 85.8276 15.4389C86.1723 15.4389 86.464 15.3445 86.7026 15.1555C86.9412 14.9633 87.1219 14.6982 87.2445 14.3601C87.3704 14.0187 87.4334 13.6259 87.4334 13.1818C87.4334 12.741 87.3721 12.3532 87.2495 12.0185C87.1268 11.6837 86.9462 11.4219 86.7076 11.233C86.4689 11.044 86.1756 10.9496 85.8276 10.9496C85.4829 10.9496 85.1912 11.0407 84.9526 11.223C84.7173 11.4053 84.5366 11.6638 84.4107 11.9986C84.2847 12.3333 84.2218 12.7277 84.2218 13.1818ZM93.1868 17.1442C92.6996 17.1442 92.2654 17.0597 91.8842 16.8906C91.5031 16.7183 91.2015 16.4647 90.9794 16.13C90.7607 15.7919 90.6513 15.371 90.6513 14.8672C90.6513 14.4429 90.7292 14.0866 90.8849 13.7983C91.0407 13.5099 91.2528 13.2779 91.5213 13.1023C91.7898 12.9266 92.0947 12.794 92.4361 12.7045C92.7808 12.6151 93.142 12.5521 93.5199 12.5156C93.964 12.4692 94.322 12.4261 94.5938 12.3864C94.8655 12.3433 95.0627 12.2803 95.1854 12.1974C95.308 12.1146 95.3693 11.992 95.3693 11.8295V11.7997C95.3693 11.4848 95.2699 11.2412 95.071 11.0689C94.8755 10.8965 94.5971 10.8104 94.2358 10.8104C93.8546 10.8104 93.5514 10.8949 93.326 11.0639C93.1006 11.2296 92.9515 11.4384 92.8786 11.6903L90.9197 11.5312C91.0192 11.0672 91.2147 10.6662 91.5064 10.3281C91.7981 9.98674 92.1742 9.7249 92.6349 9.54261C93.099 9.35701 93.6359 9.2642 94.2457 9.2642C94.67 9.2642 95.076 9.31392 95.4638 9.41335C95.8549 9.51278 96.2012 9.6669 96.5028 9.87571C96.8078 10.0845 97.0481 10.353 97.2237 10.6811C97.3994 11.0059 97.4872 11.3954 97.4872 11.8494V17H95.4787V15.9411H95.419C95.2964 16.1797 95.1323 16.3902 94.9268 16.5724C94.7214 16.7514 94.4744 16.8923 94.1861 16.995C93.8977 17.0945 93.5646 17.1442 93.1868 17.1442ZM93.7933 15.6825C94.1049 15.6825 94.38 15.6212 94.6186 15.4986C94.8572 15.3726 95.0445 15.2036 95.1804 14.9915C95.3163 14.7794 95.3842 14.5391 95.3842 14.2706V13.4602C95.3179 13.5033 95.2268 13.5431 95.1108 13.5795C94.9981 13.6127 94.8705 13.6442 94.728 13.674C94.5855 13.7005 94.4429 13.7254 94.3004 13.7486C94.1579 13.7685 94.0286 13.7867 93.9126 13.8033C93.6641 13.8397 93.447 13.8977 93.2614 13.9773C93.0758 14.0568 92.9316 14.1645 92.8288 14.3004C92.7261 14.433 92.6747 14.5987 92.6747 14.7976C92.6747 15.0859 92.7791 15.3063 92.9879 15.4588C93.2 15.608 93.4685 15.6825 93.7933 15.6825ZM102.581 17.1491C101.798 17.1491 101.126 16.9834 100.562 16.652C100.002 16.3172 99.5711 15.8532 99.2695 15.2599C98.9712 14.6667 98.8221 13.9839 98.8221 13.2116C98.8221 12.4295 98.9729 11.7434 99.2745 11.1534C99.5794 10.5601 100.012 10.0978 100.572 9.76633C101.132 9.43158 101.798 9.2642 102.571 9.2642C103.237 9.2642 103.82 9.38518 104.321 9.62713C104.821 9.86908 105.217 10.2088 105.509 10.6463C105.801 11.0838 105.961 11.5975 105.991 12.1875H103.993C103.936 11.8063 103.787 11.4998 103.545 11.2678C103.306 11.0324 102.993 10.9148 102.605 10.9148C102.277 10.9148 101.991 11.0043 101.745 11.1832C101.503 11.3589 101.315 11.6158 101.179 11.9538C101.043 12.2919 100.975 12.7012 100.975 13.1818C100.975 13.669 101.041 14.0833 101.174 14.4247C101.31 14.7661 101.5 15.0263 101.745 15.2053C101.991 15.3842 102.277 15.4737 102.605 15.4737C102.847 15.4737 103.065 15.424 103.257 15.3246C103.452 15.2251 103.613 15.081 103.739 14.892C103.868 14.6998 103.953 14.4695 103.993 14.201H105.991C105.958 14.7843 105.799 15.2981 105.514 15.7422C105.232 16.183 104.843 16.5277 104.346 16.7763C103.848 17.0249 103.26 17.1491 102.581 17.1491ZM109.266 14.8026L109.271 12.2621H109.579L112.025 9.36364H114.456L111.17 13.2017H110.668L109.266 14.8026ZM107.347 17V6.81818H109.465V17H107.347ZM112.12 17L109.873 13.674L111.285 12.1776L114.601 17H112.12ZM48.8849 33V22.8182H55.7457V24.593H51.0376V27.0192H55.3928V28.794H51.0376V31.2251H55.7656V33H48.8849ZM64.5368 25.3636L61.867 33H59.4806L56.8109 25.3636H59.0481L60.6341 30.8274H60.7136L62.2946 25.3636H64.5368ZM68.8248 33.1491C68.0525 33.1491 67.3846 32.9851 66.8212 32.657C66.2611 32.3255 65.8285 31.8648 65.5236 31.2749C65.2187 30.6816 65.0662 29.9938 65.0662 29.2116C65.0662 28.4228 65.2187 27.7334 65.5236 27.1435C65.8285 26.5502 66.2611 26.0895 66.8212 25.7614C67.3846 25.4299 68.0525 25.2642 68.8248 25.2642C69.597 25.2642 70.2632 25.4299 70.8233 25.7614C71.3868 26.0895 71.821 26.5502 72.1259 27.1435C72.4308 27.7334 72.5833 28.4228 72.5833 29.2116C72.5833 29.9938 72.4308 30.6816 72.1259 31.2749C71.821 31.8648 71.3868 32.3255 70.8233 32.657C70.2632 32.9851 69.597 33.1491 68.8248 33.1491ZM68.8347 31.5085C69.186 31.5085 69.4793 31.4091 69.7147 31.2102C69.95 31.008 70.1273 30.733 70.2466 30.3849C70.3693 30.0369 70.4306 29.6409 70.4306 29.1967C70.4306 28.7526 70.3693 28.3565 70.2466 28.0085C70.1273 27.6605 69.95 27.3854 69.7147 27.1832C69.4793 26.9811 69.186 26.88 68.8347 26.88C68.4801 26.88 68.1818 26.9811 67.9398 27.1832C67.7012 27.3854 67.5205 27.6605 67.3979 28.0085C67.2786 28.3565 67.2189 28.7526 67.2189 29.1967C67.2189 29.6409 67.2786 30.0369 67.3979 30.3849C67.5205 30.733 67.7012 31.008 67.9398 31.2102C68.1818 31.4091 68.4801 31.5085 68.8347 31.5085ZM76.0783 22.8182V33H73.9604V22.8182H76.0783ZM82.6719 29.7486V25.3636H84.7898V33H82.7564V31.6129H82.6768C82.5045 32.0604 82.2178 32.42 81.8168 32.6918C81.419 32.9635 80.9335 33.0994 80.3601 33.0994C79.8497 33.0994 79.4006 32.9834 79.0128 32.7514C78.625 32.5194 78.3217 32.1896 78.103 31.7621C77.8875 31.3345 77.7782 30.8224 77.7749 30.2259V25.3636H79.8928V29.848C79.8961 30.2988 80.017 30.6551 80.2557 30.9169C80.4943 31.1787 80.8142 31.3097 81.2152 31.3097C81.4704 31.3097 81.709 31.2517 81.9311 31.1357C82.1532 31.0163 82.3321 30.8407 82.468 30.6087C82.6072 30.3767 82.6752 30.09 82.6719 29.7486ZM90.5456 25.3636V26.9545H85.9469V25.3636H90.5456ZM86.9909 23.5341H89.1088V30.6534C89.1088 30.849 89.1387 31.0014 89.1983 31.1108C89.258 31.2169 89.3408 31.2914 89.4469 31.3345C89.5563 31.3776 89.6822 31.3991 89.8248 31.3991C89.9242 31.3991 90.0236 31.3909 90.123 31.3743C90.2225 31.3544 90.2987 31.3395 90.3517 31.3295L90.6848 32.9055C90.5788 32.9387 90.4296 32.9768 90.2374 33.0199C90.0452 33.0663 89.8115 33.0945 89.5364 33.1044C89.026 33.1243 88.5785 33.0563 88.1941 32.9006C87.8129 32.7448 87.5163 32.5028 87.3042 32.1747C87.092 31.8466 86.9876 31.4323 86.9909 30.9318V23.5341ZM91.9252 33V25.3636H94.0431V33H91.9252ZM92.9892 24.3793C92.6743 24.3793 92.4042 24.2749 92.1788 24.0661C91.9567 23.8539 91.8457 23.6004 91.8457 23.3054C91.8457 23.0137 91.9567 22.7635 92.1788 22.5547C92.4042 22.3426 92.6743 22.2365 92.9892 22.2365C93.304 22.2365 93.5725 22.3426 93.7946 22.5547C94.0199 22.7635 94.1326 23.0137 94.1326 23.3054C94.1326 23.6004 94.0199 23.8539 93.7946 24.0661C93.5725 24.2749 93.304 24.3793 92.9892 24.3793ZM99.19 33.1491C98.4177 33.1491 97.7499 32.9851 97.1864 32.657C96.6263 32.3255 96.1938 31.8648 95.8888 31.2749C95.5839 30.6816 95.4315 29.9938 95.4315 29.2116C95.4315 28.4228 95.5839 27.7334 95.8888 27.1435C96.1938 26.5502 96.6263 26.0895 97.1864 25.7614C97.7499 25.4299 98.4177 25.2642 99.19 25.2642C99.9622 25.2642 100.628 25.4299 101.189 25.7614C101.752 26.0895 102.186 26.5502 102.491 27.1435C102.796 27.7334 102.949 28.4228 102.949 29.2116C102.949 29.9938 102.796 30.6816 102.491 31.2749C102.186 31.8648 101.752 32.3255 101.189 32.657C100.628 32.9851 99.9622 33.1491 99.19 33.1491ZM99.1999 31.5085C99.5513 31.5085 99.8446 31.4091 100.08 31.2102C100.315 31.008 100.493 30.733 100.612 30.3849C100.734 30.0369 100.796 29.6409 100.796 29.1967C100.796 28.7526 100.734 28.3565 100.612 28.0085C100.493 27.6605 100.315 27.3854 100.08 27.1832C99.8446 26.9811 99.5513 26.88 99.1999 26.88C98.8453 26.88 98.547 26.9811 98.305 27.1832C98.0664 27.3854 97.8858 27.6605 97.7631 28.0085C97.6438 28.3565 97.5842 28.7526 97.5842 29.1967C97.5842 29.6409 97.6438 30.0369 97.7631 30.3849C97.8858 30.733 98.0664 31.008 98.305 31.2102C98.547 31.4091 98.8453 31.5085 99.1999 31.5085ZM106.444 28.5852V33H104.326V25.3636H106.344V26.7109H106.434C106.603 26.2668 106.886 25.9155 107.284 25.657C107.681 25.3951 108.164 25.2642 108.73 25.2642C109.261 25.2642 109.723 25.3802 110.118 25.6122C110.512 25.8442 110.819 26.1757 111.037 26.6065C111.256 27.0341 111.365 27.5445 111.365 28.1378V33H109.248V28.5156C109.251 28.0483 109.132 27.6837 108.89 27.4219C108.648 27.1567 108.315 27.0241 107.89 27.0241C107.605 27.0241 107.353 27.0855 107.135 27.2081C106.919 27.3307 106.75 27.5097 106.627 27.745C106.508 27.977 106.447 28.2571 106.444 28.5852Z" fill="#251055"/>
<defs>
<linearGradient id="paint0_linear_29_1134" x1="20" y1="0" x2="20" y2="40" gradientUnits="userSpaceOnUse">
<stop offset="0.09375" stop-color="#455EB5"/>
<stop offset="0.484375" stop-color="#5643CC"/>
<stop offset="0.692708" stop-color="#673FD7"/>
</linearGradient>
</defs>
</svg>
